<mxfile host="65bd71144e">
    <diagram id="J7Iuh8bk_clvbyWxLsR0" name="Page-1">
        <mxGraphModel dx="2246" dy="901" grid="1" gridSize="10" guides="1" tooltips="1" connect="1" arrows="1" fold="1" page="1" pageScale="1" pageWidth="850" pageHeight="1100" math="0" shadow="0">
            <root>
                <mxCell id="0"/>
                <mxCell id="1" parent="0"/>
                <mxCell id="2" value="" style="shape=image;verticalLabelPosition=bottom;labelBackgroundColor=default;verticalAlign=top;aspect=fixed;imageAspect=0;image=data:image/png,iVBORw0KGgoAAAANSUhEUgAABXMAAAQYCAYAAABMaEouAAAAAXNSR0IArs4c6QAAAARnQU1BAACxjwv8YQUAAAAJcEhZcwAAFiUAABYlAUlSJPAAAP4vSURBVHhe7P0LnFX1fe//f+YCw2VmAMUAchkvKQrUaKAnQtBIU4UHrTYa4VA1p/Fy0J40J4Jjk7b/E7k0p20SRzD/Jo0Q0KQi0MFLi61lNC3GIthTbIwBhHjjzkQUmBkuA3P5rfd3r++42ewZZpjZl7X36/l4bPa6ftdaew97r/3en/1dBa0BAwAAAAAAAABktcLwHgAAAAAAAACQxQhzAQAAAAAAACACCHMBAAAAAAAAIAJO6zO3sbHRDh8+bA0NDdbS0hJOxdn07t3bSktLbdCgQVZYSD4OAAAAAAAAoOe5MFd57jvvvGOHDh1ywWRJSQmhZBecOnXKTp486QLwkSNH2ic+8YlwDgAAAAAAAAD0jIKWlpbWN954w4W3F1xwQTgZ5+L48eP20Ucf2XnnnWeXXHJJOBUAAAAAAAAAuq9QFbkEuT2jb9++Nnz4cPvggw9cdxUAAAAAAAAA0FMK1bUCQW7PUt+5u3btCscAAAAAAAAAoPsK1UcuelZZWZmdOHEiHAMAAAAAAACA7ivUxc7Q89R1xdGjR8MxAAAAAAAAAOieQoWO6HlFRUXW3NwcjgEAAAAAAABA9xRs3769Vd0CtGfDhg22e/fucOx0/fr1s89//vP21ltv2Q9/+EMbMWKEfe1rX7PzzjsvXCK5lpYW27t3r23ZssX113vFFVfYuXT3oLBUF3D7t3/7N7cPn/70p23KlCk2atSocInOa2pqsjVr1tjatWvtxhtvtN///d+3/v37h3O77sCBA3bppZdaeXl5OAUAAAAAAAAAzt1Zw9y77rrL1q1bF46dbsiQIfbMM8/Yz3/+c/uLv/gLu/zyy23evHl22WWXhUskd+rUKXvhhRfskUcesc985jP2Z3/2Z+6iYZ3V2tpqv/71r+1P/uRP7F//9V9dOOyp24gbbrjB/vqv//qsoXK8uro6W7RokQt0Z82aZbNnz3bHd64IcwEAAAAAAAD0pE6Fua+88oo9+uijdtVVV4VTY9SVgCprFaaqf1h12aC2CgoKwiWS606YqyD30KFD9sADD9hPf/pT+9SnPmVf//rX7aKLLrJf/vKX9r3vfc9V6U6ePNkee+wxtz+dpYuWHTt2zPr27etu3UGYCwAAAAAAAKAndarDXIWzgwcPtuHDh592Gzp0aFvfsI2Nje5eYavovqGhwf7jP/7DVbu+9tprbplkjh8/bm+88Ybr4uAXv/iFC3vbc/LkSfv7v/9717WCAtunnnrKrrvuOquoqLDf/d3fbRvfvHmz/dM//ZNbR+3X1tbakSNHTqvi1XRV+KoqV9PVtrbtj0MBtUJZdQmRePvoo4863E8AAAAAAAAA6EndvvqZAk1V7v7BH/yBPfTQQ3b48GFX3fqP//iPdu2119rNN9/s+tGdMWOG/d7v/Z5bNt62bdts7ty5dtNNN9l9993n+qr93//7f9u7774bLnE6tf3SSy+5St45c+bYgAEDwjmx0Fnj6iKhV69ervq3vr7e3avrhG9/+9suuBVfHfzlL3/Zli5d6qbr/otf/KKtXLnSHUd1dbULiP/bf/tvZ9wqKyvtV7/6lWsLAAAAAAAAAFKt22FuIlW4KuT8wQ9+YOeff76tWrXKduzYYd///vddYPqjH/3IDh486JZVtwZvv/22XXjhha56V2Hq+PHjXRWvwuDEyle1rUra999/3/Vnq24MEqlSWF0uqGp4586drkuGc6ELss2cOdP++Z//2f7f//t/7qa+g//H//gf9olPfMJGjx7ttgEAAAAAAAAA6dCpMFfdDdxyyy0udI2//eVf/mW4xMcUuKoaVutcfPHFdsUVV1hpaamrylVFrUJeddkg6mP36quvtq985Suu79zrr7/ebrvtNtdf7b59+1w3DYnUvrpAUAVunz59wqmnU7u6KSxW1wrnqn///i6wVZcSCqbVdYMqi3WBtTvuuKNLF1gDAAAAAAAAgO7oVJhbXFxs11xzjesKIf72m7/5m+ESH1NlrCpXFYC++OKLrnsDVeW+8847LqRVQOqp+lXLxoe7JSUlbnp3qcsFtdOVC6C1R33o1tTU2N/93d/ZJZdc4gLnUaNGhXMBAAAAAAAAIPU6FeYqYFUfsY899thpN/Vvm0ghqro/mD9/vqtgfe+99+z//t//a5///OfdTd0p+IuknQsFwqr0VXcLqgBOpLbVr67m9evXr0eC4V/+8pf29NNPu1BXfep+6lOfCucAAAAAAAAAQHr0eJ+5ourcMWPGuD5wdYGzV1991R544AHX5YGmvfnmm+GSXaPKXXV3cNlll7luGF5++WUX3irYvfPOO92FybQtdYdQW1trl19+eVvVb6KmpibXFcTx48fDKcnt2bPHVq9e7foBVtcKuiCaKpUBAAAAAAAAIJ16PMxVSLp9+3b727/9W3vmmWfaLkj23//7f7drr73W9YN7+PDhcOmuUz+5f/AHf+DaVfcNb7zxhgt458yZ46qCFRr/9V//teteYcaMGa4yd+DAge5+7969tn//fteOwuDXX3+9wz51tZ8KcnURtMmTJ9u0adPa7acXAAAAAAAAAFKpx8NcBaoKQZ988kl7+OGH7Uc/+pFt3LjR/uZv/sZ++tOfur501e/suerVq5dNnDjR/vAP/9B2797tLsymfnnVvi6KpkpaVdzeddddLoCVkSNHumpeVfL+0R/9kVv3a1/7mq1fv77dcPbkyZP2j//4j7Zy5Uo3/Pbbb7vuIu677z5307G99dZb4dIAAAAAAAAAkFo9HuaqYlZ9yv75n/+5G1+wYIHdeuuttmrVKrvqqqvsoYceshEjRrh550p94aoP30cffdR1o6CuFVQ9u3XrVtenrgLleAqPFfiOHz/eXYhN4XJFRYV96UtfclW7yTQ2NtrBgwetrq7OhdOvvfaarV27tu32s5/9zHXlAAAAAAAAAADpULB9+/ZWdUmQCrpgmC5EduLECdftQf/+/cM5PUd95mob6r5B2zh16pQLetX9wg9/+EP7zGc+Ey4Z2x+FtKJAOJUOHDjgLgRXXl4eTgEAAAAAAACAc5fSMDcTFO4qsFU1rap01fVCJhDmAgAAAAAAAOhJheoPNpeoiwX1gzt06NCMBbmix7W0tDQcAwAAAAAAAIDuKVS3BOhZ6s6hd+/eVljY410SAwAAAAAAAMhThapkVX+z6DkffvhhRquCAQAAAAAAAOSewhEjRtihQ4fchcPQfXV1de7+kksucfcAAAAAAAAA0BMKWgN79+61PXv2uIt1qZ/X4uLicDY6y190TV0rXHzxxZZLF5UDACAlGlvMGprMmoL7E8EtXp/C4FZkVlxg1p/zEgAAAAAQF+Zq4MSJE7Zz5047duyYu3gX/b12XktLi/Xt29eF4RdddFE4FQAAnObIKbODJ82ONgc3hbjuFOTsfKB7fi+zwSVmJZyjAAAAAMhPbWEuAABAj1PF7a8bzfYe73x4ezYKdof3MRvYi2AXAAAAQF4hzAUAAD1PlbfvHItV46aKumEYUGxW0Y9QFwAAAEBeIMwFAAA9R9W3u47HKnHTRaHuhX1i1boAAAAAkMMIcwEAQM/48KTZjoae606hqxTqfqqcKl0AAAAAOYswFwAAdN+7x9JbjdseXSxtVD+qdAEAAADkJMJcAABw7lSFu7U+tX3jngv1ozuqbzgCAAAAALmBMBcAAJybEy2xIFcXO8tGBLoAAAAAcgydygEAgK5TRe4v6rI3yJWdx2IXYwMAAACAHEGYCwAAuk4VuY3N4UgWI9AFAAAAkEMIcwEAQNfsOpZ9feR2RIHuhyfDEQAAAACILsJcAADQebWNZjsjWOm6o8GssSUcAQAAAIBoIswFAACdowueRTHIFfXxu70hHAEAAACAaCLMBQAAnaPuCqLQT2571DUE3S0AAAAAiDDCXAAAcHaqyv11YzgSYe8eCwcAAAAAIHoIcwEAwNmpKjcXnGiO9fsLAAAAABFEmAsAADqWK1W53q6I9vsLAAAAIO8R5gIAgI7lSlWup+pc9Z8LAAAAABFDmAsAADp2pCkcyCF0tQAAAAAggghzAQBA+1TB2tgcjuSQD0+aNbWGIwAAAAAQDYS5AACgfQdPhgM5RkHu0RysOAYAAACQ0whzAQBA+3I58DxMmAsAAAAgWghzAQBA+3Kxv1yPylwAAAAAEUOYCwAAkmvIwb5y4xHmAgAAAIgYwlwAAJBcc0s4kKNOBMfHRdAAAAAARAhhLgAASO54z1fm1h87Gg51XXfWbVczYS4AAACA6CDMBQAAyTX2TGXuTX96u9333Qds5UtP28s///dwasx9Dz8QDnWs/liDPf/qv4RjPehUjlcfAwAAAMgpBa2BcBgAAOBjO4+Z7Toejpy72xfea7f9zq122ahPWtXq79uE0Vfa/g8PWGnfUtux5x0bdv6QYLzWHnvwEVu7YZ2t/OnTVtav1C0nw84f6pbfvP0Nm/Lpybb21XV202en2W3X3+rmd8sV5WYDe4UjAAAAAJDdqMwFAAApd+HgIVbat78bnvLpa8x9k1xQ4Mbn3/UNdy8Kbe+96cs2esSlblwVuQ3HG9ywXHfVNUFbQ3smyAUAAACAiCHMBQAAyRXHwtbumjD6Kptw2VUuhB094pO2efvPraxvqV14/pC20FbTRUHv8xv/xTbveMNGj7zUdux+x7bvfttV544e+Ulb+dIas9ZWV8HbI3roGAEAAAAgHehmAQAAJHfghNmvUnDRsU6oWvV916WCQuCU+swgsxK+2wYAAAAQDYS5AAAguQ9Pmm2tD0dy1LXnhwMAAAAAkP0oRQEAAMn1LwoHclSuHx8AAACAnEOYCwAAkutTlNt9yur4AAAAACBCCHMBAED7BvQKB3LQgOJwAAAAAACigTAXAAC0L5cDz1wOqgEAAADkJMJcAADQvvN7hwM5pk9wClRKZS4AAACAaCHMBQAA7VO/srlYnUtVLgAAAIAIIswFAAAdy8Xq3Iq+4QAAAAAARAdhLgAA6NiQPmbFBeFIDlBVbklROAIAAAAA0UGYCwAAOqYg98I+4UgOGEVVLgAAAIBoIswFAABnN7xvblTnnt/LbCD95QIAAACIJsJcAABwdgpyc6Gi9dL+4QAAAAAARA9hLgAA6BxV5w4oDkciaFQ/+soFAAAAEGmEuQAAoPNGl0azu4U+wSlPBX3lAgAAAIg2wlwAANB5fYrMLolYVwUKcj9VHo4AAAAAQHQR5gIAgK4ZUhKt/nPHltG9AgAAAICcQJgLAAC6rqJfNAJddQvRP8L9/AIAAABAHMJcAABwbrI90FWQqypiAAAAAMgRBa2BcBgAAKDrdh4z23U8HMkCukDbmDKzgb3CCQAAAACQGwhzAQBA93140uydo2aNLeGEDFGXCuNK6SMXAAAAQE4izAUAAD3jRLPZzuNmv24MJ6SZunxQ1w8AAAAAkKMIcwEAQM+qPRELddNVpTug2OwyqnEBAAAA5D7CXAAAkBqpDnUV4o7qR9+4AAAAAPIGYS4AAEitw6fMahvNPjpp1tTN046SQrMhJWbn9zYrLQ4nAgAAAEB+IMwFAADpo2D3SHhTsHu0OZzRDoW3qrztX2R2folZn2AcAAAAAPIUYS4AAMisEy1mTbqFpyR9wr5vCW4BAAAA4DR8SgIAAJml0La02KpffM72NNTGxglyAQAAAOAMfFICAABZYc2aNVZdXR2OAQAAAAASEeYCAAAAAAAAQAQQ5gIAAAAAAABABBDmAgAAAAAAAEAEEOYCAAAAAAAAQAQQ5gIAAAAAAABABBDmAgAAAAAAAEAEEOYCAAAAAAAAQAQQ5gIAAAAAAABABBDmAgAAAAAAAEAEEOYCAAAAAAAAQAQQ5gIAAAAAAABABBDmAgAAAAAAAEAEEOYCAAAAAAAAQAQQ5gIAAAAAAABABBDmAgAAAAAAAEAEEOYCAAAAAAAAQAQQ5gIAAAAAAABABBDmAgAAAAAAAEAEEOYCAAAAAAAAQAQQ5gIAAAAAAABABBDmAgAAAAAAAEAEEOYCAAAAAAAAQAQQ5gIAAAAAAABABBDmAgAAAAAAAEAEEOYCAAAAAAAAQAQQ5gIAAAAAAABABBDmAgAAAAAAAEAEEOYCAAAAAAAAQAQQ5gIAAAAAAABABBDmAgAAAAAAAEAEEOYCAAAAAAAAQAQQ5gIAgIzYtGmT7dmzJxw709atWzucDwAAAAD5hjAXAABkxIIFC2zWrFlJA1sFuZpXXV0dTgEAAAAAEOYCAICMWLp0qbtPDHR9kDt16lSbO3duOBUAAAAAUNAaCIcBAADSSiGuglspLy+3ESNGuO4XFORWVVW56QAAAACAGMJcAACQUT7Q9dW5M2bMIMgFAAAAgCQIcwEAQMb5QHfixIkEuQAAAADQDsJcAAAAAAAAAIgALoAGAAAAAAAAABFAZS4AALno379j9qt14Uhg5gqzFx4wa6gNJ6DHXP0Vs7G3hiMAAAAAkDpU5gIAkGtONpwe5CK1dm4IBwAAAAAgtQhzAQDINQpzAQAAAAA5hzAXAAAAAAAAACKAPnMBAMhF9QfCgVDZ0DOnoefo8QUAAACAFCPMBQAg1zQciF3sLN70R8xe+U5sHnrW0KvMrv16OAIAAAAAqUOYCwBArlFgW31HOBKauSIW8DbUhhPQY4ZeGQvLAQAAACDF6DMXAAAAAAAAACKAMBcAAAAAAAAAIoAwFwAAAAAAAAAigDAXAAAgjfbs2RMOdZ3WrampCccAAAAA5BvCXAAAgDRasGCBbdq0yZYtWxZOOd3WrVuturraLVdZWWmzZ892wwpyFy1aZGPHjg2XBAAAAJBvCHMBAADSoK6uzoW0oiBXoW2yKtvdu3fbiBEjrLy83KZNm2ZLly61efPmuWni78+F9qEztJ9+3zq7TnsWL17crWpkAAAAAB8jzAUAAEgxBbeqrl2+fLkLYxVuzpgxwyZOnBgu8TEFuJMmTXLLxAe3Clj9dFXrxoesCkxnzZrlKn6T0Travq8G1riWF7UVv57a0v5q37QNrSfTp09308UHvWpH1cNr1qxx4+L3T8suXLjQVRJ3J4AGAAAA8DHCXAAAgBRToDl37lxXbatgUyGpAtSOql4VisZ3qaAAVeO+ywW1JRresmWLazdZaOqDZIXEfp2NGzfazJkzXXCr0FbVwKLAWPvkl9W6utd03R85cqRtGVG7AwYMcG347SjcVSWx31+/TQAAAADdR5gLAACQYgo51d+tglcFoQpdp06d2uWgc926dS4U9qGt2lOFrdrUdI1rO56mK3xVuKrpI0eOdNMV4mrbra2tLojVerJt2zYX2Crc1T6LtqXKW92PGzfODfuqXd1UYawgVwGxAtyqqiq37PDhw11b2uf2+gcGAAAA0DWEuQAAACmmMNWHnOoqQUGugtH2wlyFq/FVuariVWDq19FNAakCWoWpuil8VYWuQt14WlfzNF3DCnLnzJnj1lV1rgJehbAKhRXAal8V6mpbonlaTsGtuonQsA+TRWGxwt977rnH7bOfp+VU4atj0T0AAACA7itoVUkGAADIHQ0HzKrvCEdCM1eYvfBAMK82nIAeM/RKs+mPhCPtU6ipAFaBp4LS+LA2GYWnPuzVuqpwVWAqGtY8BcNaTmGqQtlk4XB8O1pP62g8fno8hcaqqPVtK8xVWKx9UFgcH8xqmtrw7WhZBdWexhXunu1YAQAAAHQOYS4AALmGMDe9Ohnmeu2FqAAAAABwNnSzAAAAumzHgeNWf6LZVm6qtfXbD4VT02fJy3tt8/v14di5Uzs7DhwLx9KDIBcAAADAuSLMBQAA7XKB7Wu19vwbB9uGFd6u3/6RPf/zg8H4AbtwQIlbdm2wjMLRfYdPuuU0vD8Y9tMVACuA1bja0vqa5pdTMKztbN5Z3zZNtOz+w43u5mmZ0UP7hmPnrqykyHbUpjfMBQAAAIBzRZgLAADatfn9Ole5uj24KWCtP9EU3O9z84YNLLFhg4LbwN5uXMspyH3+jQ9cYKv5a4Phpev3Wlmf4mCJVhf+KsStWrfLNu+ss8q//5ULa6vW7bSn/qPWRg/pZys3HXDtba896u61D2pv/fbDbtyLtdk9pX273wZ6hrqfAAAAANAxwlwAANCuCxXYDuztglRVscqEilJ3X9Y3Nr7/8Clb/9ah0ypcy/oU2YUDYiHvjVcNdvMV9MqEi8pcZe11l53nltE2Rg/t7+aNHtovaL/cBby+GwVV6O473OiC5ESuSjhsW8OxZWPDCoBV+eun++H46YhZvny5VVZWhmOpo8B2wYIFZwS3mzZtcrfO0AXaAAAAgHxVND8QDgMAgFxwssFs6zPhSGjcrWZvrwvmxapdO+v80l4uWJ027jy76aoL3PBlQ/sFt/42OJjnqnMH9o4NDyixK0b0d/MuGtwnGC5z0zV8fllvm/ab57n2fuuicptQURbML7VJnxxgHx49ZTddeb5ddH6fYNm+bpmTza1264QLrKS40C035fJBNiFYz1O1rwJgta/guHewnJZ9evOv3fIaLikucO0VBMs/sWG/TQ22r+H46c8Ey2tYIfI5Kx1q9hvTwpHUqqmpsUsvvTQc6xnV1dXW2Nhof/qnfxpOSZ2vfvWrNnfuXLvgggvCKTGLFi2yL33pS1ZSUuKGCwoKbMSIEeHcjykE1vxp09LzeAMAAADZpqA1EA4DAIBc0HDArPqOcCQ0c4XZCw8E82rDCdGm/nNL+xSd0dWCKnhV6ZuoventtdMlQ680m/5IOHJ2vio1/kJoixcvto0bN9rq1atdYDt27NgzwkwfZM6bN89VsU6cONFN68wF1fbs2ZM0HBVVyqpNtaV2161b5wJXv7yqdrVvVVVVblvx21y4cKFNnTrV7UsirSd33323u9cxzpgxo60N376GVRW8dOlSN55o1qxZbttaXo/N7t277Z577gnnAgAAAPmFbhYAAEDkqCI4WQCbLLCV9qa3104qKLRUGKvg0ncpoJBVIWdZWZkLcjW8ZcsWF7Am0vozZ850w8uWLXPLKujU9PZoO9pesi4UNG/69OluH7Q97ZuqdBW+aljtrlmzxo4cOeKCVg1rm1pH8xTWKvhNVheg0FXrab6WnT17thtW+9p3BbKe9iO+0jZxXxX+KsjVfmp9v7/JumsAAAAAch1hLgAAQBoopJw0aZLr89VXpSqcjK80VeCpsFKVsQoqNexpngJSBaVaXyGqr85NRuGrKmpHjhx5WhWsX17r6qbwVpW5ClRVZTtgwAAXoGq/FOpqX8QHt6oaVhua75dPpr6+3m1X64m2pbZ00+PgaR99Za+CXb+vovBYNF3L6fHQY6X91c1XCAMAAAD5gjAXAAAgxRTaKsRUsOmDSwWlCinV9YAoqFRQ6rtRUAVrfFipaePGjXOVuwp0VaWr4FNta15iNa/CVgW0CmDVTrI2FcqqTT+s9hQCK6Tdu3dvWxcJ2qb2T9vUcgqmFarGB9PxFDr77eqY1F58gBtP7aoNtatj8e0pyFUbc+bMaTsWzUu2PQAAACBfEOYCAACkmAJLhbcKQxXqKrTUsIJOH3Iq+PRB6ZgxY9xy8cGrltW4Qk2FrAo1fbiqqlWFwJ6mKbz1IbKW1T5oOJHfhu7VB64CVO2TAlzf/YGqe32/tQpx/bDfp0R+Pe2TwmLtT3shrMJtBdHqMkLrqfsGPQb+sXn66afdBdEUHPt2AQAAgHzFBdAAAMg1eXABtKzSyQugKdBMFnymSme250PlVFOfue1d4EwUHPsK4Xiarm4cfBgt7YXCAAAAQD4gzAUAINcQ5qZXJ8PcfKaqWlXaAgAAAOgeulkAAABAShHkAgAAAD2DMBcAAAAAAAAAIoAwFwAAAAAAAAAigDAXAAAAAAAAACKAMBcAAAAAAAAAIoAwFwAAAAAAAAAigDAXAAAAAAAAACKAMBcAAAAAAAAAIoAwFwCAXFM6NLgNCUeQcuddGg4AAAAAQGoVtAbCYQAAkEv2/zwcCAy76vRx9IzepWbnfzIcAQAAAIDUIswFAAAAAAAAgAigmwUAAJAVZs2aZWvWrAnHAAAAAACJCHMBAEDW2L17dzgEAAAAAEhEmAsAAAAAAAAAEUCYCwAAAAAAAAARQJgLAAAAAAAAABFAmAsAAAAAAAAAEUCYCwAAAAAAAAARQJgLAAAAAAAAABFAmAsAAAAAAAAAEUCYCwAAAAAAAAARQJgLAAAAAAAAABFAmAsAAAAAAAAAEUCYCwAAMqK6utr27NkTjp1p06ZNtnXr1nAMAAAAAECYCwAAMmLNmjU2a9aspIGun7dx48ZwCgAAAACAMBcAAGTE0qVLrby8/IxAV0FuZWWlzZkzx+65555wKgAAAACgoDUQDgMAAKRVXV2dC3N1r2BX1LWCgty5c+e6cQAAAABADGEuAADIKB/o+v5xCXIBAAAAIDnCXAAAkHEKdGfPnm0TJ04kyAUAAACAdhDmAgAAAAAAAEAEEOYCAJCrGmrDgUDpkNPH0XP02AIAAABAGhDmAgCQi/7hPrOP3g5HAjNXmL3wAIFuKlz9FbOxt4YjAAAAAJA6heE9AADIFScbTg9ykVo7N4QDAAAAAJBahLkAAOQahbkAAAAAgJxDmAsAAAAAAAAAEUCfuQAAAAAAAAAQAYS5AADkmoYDZtV3hCMhLoCWOkOvNJv+SDgCAAAAAKlDNwsAAAAAAAAAEAGEuQAAAAAAAAAQAYS5AAAAAAAAABABhLkAAAAAAAAAEAGEuQAAAAAAAAAQAYS5AAAAAAAAABABhLkAAAAAAAAAEAGEuQAAAAAAAAAQAYS5AAAAAAAAABABhLkAAKDbdhw4bvsPn7SVm2pt/fZD4dTu2X+4MRzqvrVvHHT7tuTlvcG+HgunAgAAAEC0EOYCAIBOqz/RbCtfq7Xn3zh42vD67R/ZU68dCMYP2IUDStyym3fWu/BUIW/88PM/1/KH3L3WjZ+nUDgWuB63e3+y/bRgeF8w34ex69865Lat+X66X1b7pSA4PgzWtqZcPtDKSopsRy1hLgAAAIBoIswFAACdtuPAUdv8fr1tP3DMBbcaf2pTrQtQLxzY24YNKrFhwb3Gq9btsgkV5cGyR93w6CH9XOD71H/UusD3sZ/tc9Oq/mWXW17zqtbttCmXDbJ9R05YWZ+iYP2ycMuxbUtVzS4X3Go7S17eZy+/dcit33C82c1XiKtKXN3iA91hA0ustG9xOAYAAAAA0UOYCwAAOq2sT7ENG9jL1m8/7MYVkE64qNQFr5on9SdaXPWstbba/iONwe2kq4jVvWjZ0UP7ueHYfatdqHYqyoJ1m2yf1jl80i4c0NsagrY8VfH6bchlQ/q5EFehrsLhp16rddNdG4cb3Q0AAAAAcklBayAcBgAAuaDhgFn1HeFIaOYKsxceCObFAs/uUBcHrmr2ovK2YYWsuleAqoC3IFhOJxjqQmHKZQNd6OqHFfT6dadcPsitk2w5P+yra2MVu40uGJbRQ/vb5vfrXCCsNhUI+5A40X0/fstuu3qIC6F/66Iyu/HKweGcHjD0SrPpj4QjAAAAAJA6hLkAAOSaFIe5UaRq3YYTsW4YSuOqiHsEYS4AAACANKGbBQAAkPNi3UOoP9+Sng1yAQAAACCNCHMBAAAAAAAAIAIIcwEAwDlb8vI+23f4pOuTVn3bqu/a9dsPhXN7xo4Dx13/uT1BF1Fb8A/vBvu91+07AAAAAEQJfeYCAJBrUtBnrgLaze/Xu4uMDRvY2w1fNqSfrX3joLvomC5UVvXfP+lC1x21x9yFyYLTDDdPy7/81iF3wTJdvGzzTl20rL9rV+GvltGFzS4cUOIuhuYuZBa0rW1qWG2pa4R5X7jYraPweOnLe600mDbl8oH2/M8PuvUrp1bYytcOuD5xK6eNcvvig+XLhvQPttPXhbi6+NqwAb1dG/O+cImb3y30mQsAAAAgTajMBQAAZ7X/UGPsAmKtsWrcsj5FbUHplMsG2mVD+rr+aHWhMQWy22uP2wPTRrlltLxC0wkVZbb2FwfdsKZvP3DUbrt6iLufctkgW//WIdeuwluFrrcH87SOwt4brxrstuWV9il0bWhbEy4qc+HsviMn3HhDsA9n4rtrAAAAANFHmAsAAM5q2KASV/GqStwpowe6qldVuMZb+Vqt1TfGukNQKKubaPmqdbvcusMGlNiCf3jPVd6KX0YUCqvdYQP7uGGFwAp1y0qKXfWtp7C34USLq/KN13C82VXybo/rlkFdP+jmxwEAAAAgyuhmAQCAXJOCbhZEoaiqb+OHVYmrLhB0L35YVbya75fr7LrJlvPDCoNFVbwKgRUut0dtJbNyU63r5sG3q+4Yuo1uFgAAAACkCWEuAAC5JkVhLtpBmAsAAAAgTehmAQAAAAAAAAAigDAXAAAAAAAAACKAMBcAAAAAAAAAIoAwFwAAAAAAAAAigDAXAAAAAAAAACKAMBcAAAAAAAAAIoAwFwAAAAAAAAAigDAXAAAAAAAAACKAMBcAAAAAAAAAIoAwFwCAXNO7NBwAAAAAAOQSwlwAAHKNwtyhV4YjSDkeawAAAABpUtAaCIcBAEAuqT8QDgTKhp4+jp6jxxYAAAAA0oAwFwAAZIW6ujorLy8PxwAAAAAAiehmAQAAZIXZs2fbsmXLwjEAAAAAQCLCXAAAkDVUnQsAAAAASI4wFwAAAAAAAAAigDAXAAAAAAAAACKAMBcAAAAAAAAAIoAwFwAAAAAAAAAigDAXAAAAAAAAACKAMBcAAAAAAAAAIoAwFwAAAAAAAAAigDAXAAAAAAAAACKAMBcAAAAAAAAAIoAwFwAAAAAAAAAigDAXAAAAAAAAACKAMBcAAAAAAAAAIoAwFwAAAAAAAAAigDAXAAAAAAAAACKAMBcAAAAAAAAAIoAwFwAAAAAAAAAigDAXAAAAAAAAACKAMBcAAAAAAAAAIoAwFwAAAAAAAAAigDAXAAAAAAAAACKAMBcAAGTE1q1bra6uLhw7k+bt2bMnHAMAAAAAEOYCAICMqKystFmzZiUNdBXiTp8+3aqrq8MpAAAAAADCXAAAkBFLly51QW5ioKsgV9MmTpxoc+fODacCAAAAAApaA+EwAABAWvngtry83I2PHTvWNm3a5ILcqqoqNw0AAAAAEEOYCwAAMsoHur5/3BkzZhDkAgAAAEAShLkAACDj4rtWIMgFAAAAgOQIcwEAQFZQv7m+uwUAAAAAwJkIcwEAAAAAAAAgAghzAQDIRf/xA7MtT4cjgZkrzF54wKyhNpyAHtG71OzTf2g29tZwAgAAAACkTmF4DwAAcsXJhtODXKSOHuudG8IRAAAAAEgtwlwAAHKNAkYAAAAAQM4hzAUAAAAAAACACKDPXAAAco0qcz98OxwJDbvKbP/PwxH0KPWbe/4nwxEAAAAASB3CXAAAck3DgdjFzuJNf8Tsle/E5qFnDb3K7NqvhyMAAAAAkDqEuQAA5BoFttV3hCOhmStiAW9DbTgBPWbolbGwHAAAAABSjD5zAQAAAAAAACACCHMBAAAAAAAAIAIIcwEAAAAAAAAgAghzAQAA0qiuri4c6ro9e/ZYTU1NOIbOWL58eTgEAAAARB9hLgAAQBotWLDAtmzZYsuWLQunnM4HtppfWVnZdtP0RYsW2dixY8Mlo2/r1q22adOmcOzcKBxXO9XV1e6x9Y+XHj89ZnqsE+nx7U6oDgAAAGQKYS4AAECa+BBR1aIKMdesWRPO+djGjRvtyJEjLoicOHGiVVVVuduIESPcfH/fVdpuYnDqA03dz5492w1319lC0vh9UOCqY+wOH9iWl5e7UHfevHnu8brnnnvcYzljxoxwydPF76eCYAAAACAKCHMBAABSTCGjwlJV1vrQUSFjsiBz5syZ7qawcdy4ceHUWBA8adIkF14mBq+LFy921ajtVblqXc3X9mXhwoWufVWyKvDUPikAVdtaTtMnT56cNJjVNnRTIB0fRisQ1XGtW7euLRxVe1rOd3Wg/VTbEl8x67eje20/sWsErddeJbMqlfV46bHScejm+ccscV+1THworuUAAACAKCDMBQAASDEFjqoY1b1CR4WWyYLSeApC47tUUEiqcYWdmudpePfu3a69srKycOrHFLAqOFV46dvzyyvE1P4ofPXLKNQtKCiwpUuXnhaMelpW67a2trog2FNYqvYVvKodta0AVu3qpgBY6/g2tbxCWB8eq02FrgpfVZmscR+AX3311a7StiM6zvhwXI+LtqU2tZ86Zj9dj6Wncd20PQAAACDbEeYCAACkmA8lFWgqVFTYqaAxWVjaHoWNCiEVCvv1FEKqbc27++67bcCAAW2Vr57GfaVvfDWqwlS/H9qvkSNHuumq2lUoGx8kx1M7CmkVrmr7onu1paBX7SmQVYCrQFfb1jQdvx/2NG3u3LluWNO1jviQ1wesau9stG78Puux8sGw9s0Hvdp33572W4+PHjuFwQAAAEC2I8wFAABIMVW5quJVYeO0adNs6tSp7j4+2IynkDE+mFRQqWkKXLWOwkkFsApDFVIq/NS4wlSFvZ7W0fIKRuMDWoWkqpL14W58GOvDz/a6HtB2tD3PB9VqUxW9PjRVm6tXr3bVwmpLx6+2/T6oHT0GClN91a3a0HpqT8trP/y2fEVwe7ReYrcUCnQVFmuegm61q2Ft2z9+2o4eV1+5CwAAAGSzguBEvjUcBgAAuaDhgFn1HeFIaOYKsxceCObVhhPQY4ZeaTb9kXCkfQoRVRWqMFMhZUfVpj609GGv1lUw6UNPXwGrMFTz1I1Ae+Gwr1BVcKn1fYArCjQVvmp9LePbEgWzyS4epn1Lth3Pt5mM1tVN+6D9Em03/jgV+PpQVscZH+Zq2fj9j6d14+fpsdZjomn+8fPj8Y+fD6IV+nZ0XAAAAEA2IMwFACDXEOamVyfDXIkPM9NNFbSqEAYAAAAQXXSzAAAAUmb99kNWf6LZVr5Wa/sPN4ZTk9OyPWXf4ZO2+f36cCx7qPIzE0GuqAoVAAAAQLQR5gIAgG5TeBoLbE+eNrxyU609/8ZBWxvcSvsUu2U1vHlnvZuvwFXL7zhw3PYfit27+QlBrMZ9m1rGD4vW1zq6KTjW7ZF1u4LtfuDmIyZZlwkAAAAAooUwFwAAdNuSl/fYjgNHbfP7dfbIup0uUJ3/j++6ecMG9LYLg1tZnyI3//Xgtv6tQ7Z5Z50t+dle23/4hK3f/pGt33HISvsUuuBWYW+8Bf+gtlrddtTuhIoyqwq2Iw0nmoI2Gt1NtJ3brv6EGwYAAACAXEKYCwAAum3KZYNs9JD+tvYXserYspIimzCqzM1TuOqC3J31bp5ZgZsu+w81BtMbwjEFsy22/0ijTbgotq43bFBJ0H6/2Ehrq9U3NrtbLqqsrAyHYhcTq6mpCceiQ/0Ct0fzdEEyAAAAAF1XND8QDgMAgFxwssFs6zPhSGjcrWZvrwvmHQ0n9KzexYW28+AJu3XCJ2zqb55nHx49Zb91UbldMaK/DRvYxy4c2NsFuVMuH+TuTza3WFmfYrvuskF20eA+dtnQ/nbF8P5WErRzfmkv1+aPN+y3l9WPboEF7ZQGtzI379bf+oS9/n693Tl5mGtD0yYE29JN64uffuHAEjeeUqVDzX6je/3Rbt261S644AIX3g4YMMDGjh3rpi9btszuueceN5xIy2aq/92OaL/Wr19v48ePD6ec7m//9m/d8an/4K6orq52j9O4cePCKQAAAED+oTIXAAB0m0LT2yYOsdFD+7nhm64c7IYVsCrI1b2CXLnpqsFhJW8/N03z/LK617qaP+8Ll7ibhnVTdW+svdi2hnUQ1Ppls4mCSEmsSlWl6qJFi9ywAsuJEye64Y4qWDVPy4pvN1k1rILV+Olqb/bs2W4dDSdW/SYuu3DhwnAsth2/LWlvu9qvSZMmhWOnU5tbtmw5LYT2+5hs/z2tt3jx4qwMrwEAAIB0IswFAABpp9BWt3yhoHLBggVtYaoPURVQat7cuXPduPjAUiHntGnJK361jq/YVfXu8uXLbdasWacFomvWrGkLfEXtqQuHqqoqVxWr4XXr1rUFu7pXGz5Y1nwFr6L52o6OQdTWxo0b3bT4biG0nJ+nZX1bnqbrmLSM9k+0jN+fZNSm2tIy7YXEAAAAQL4gzAUAAEix3bt3u64FFGaq8rasrMwFrQpuNe3IkSNnVKwqaPVVuok0T+soFNY6Glb7PsxVAKplfHCr8fggV9vWvW5aT+MKTH2orJBZw5ovPnD1++NDYnUJ4bepgNYfkwLbefPmnRZSiw+xdcy6eT4ETkbt+/0GAAAA8h1hLgAAQIrV19e7kNMHliNHjnSVqTNmzHABp/qB3bt3b1tYquVUKat1FGaqAja+6lbztY4CYK0/c+ZMt6xCUa2n4Pbuu+92y2q+wljN1020jOYrbFWIq2Xit93a2uoCZ7+82p06daoLadW21tc62n+/XdFx+n1JRsegYFsVtgpntZ7CZL+/vp14mq/ttRdsAwAAAPmEC6ABAJBrMnABtLzWiQugqXJW1a7f+MY3XGCpIFRBqi569l//9V8uJP3ggw9cdwkrVqxw6/h5umDYV77yFTfu+XXU1qWXXmpTpkxxAbEqYzVNwavaWbt2rZuu8FT3CkalsbHRbUv36q5BwaoPYfv06eOmaX8KCgrcOgp4dVMY66ttb7rpJtembj/4wQ/cNNG24vc1nrZZUlLi2tExaVjt/umf/qkLt3//93/fTYun+TouraNttdc2AAAAkA8KWlV6AQAAckfDAbPqO8KR0MwVZi88EMyrDSegxwy90mz6I+FI+1RFq2paUTCZrNsAdT2gZfy8xPGuaG8bqaTgtbMVtPH7p2FV5y5dutSNx/NdPCi8bq/iFwAAAMgXhLkAAOQawtz06mSYi9OpOln9+opC2o66ZwAAAAAQQ5gLAECuIcxNL8JcAAAAAGnCBdAAAAAAAAAAIAIIcwEAAAAAAAAgAghzAQAAAAAAACACCHMBAAAAAAAAIAIIcwEAAAAAAAAgAghzAQAAAAAAACACCHMBAAAAAAAAIAIIcwEAyDWlQ4PbkHAEKcdjDQAAACBNCloD4TAAAMgVDQfMPnzb7GRDbLziGrP9P/94HD2jd2nssQUAAACANCDMBQAAAAAAAIAIoJsFAACQFSorK23NmjXhGAAAAAAgEWEuAADICnv27LHdu3eHYwAAAACARIS5AAAAAAAAABABhLkAAAAAAAAAEAGEuQAAAAAAAAAQAYS5AAAAAAAAABABhLkAAAAAAAAAEAGEuQAAAAAAAAAQAYS5AAAAAAAAABABhLkAAAAAAAAAEAGEuQAAAAAAAAAQAYS5AAAAAAAAABABhLkAAAAAAAAAEAGEuQAAAAAAAAAQAYS5AAAAAAAAABABhLkAAAAAAAAAEAGEuQAAAAAAAAAQAYS5AAAAAAAAABABhLkAAAAAAAAAEAGEuQAAAAAAAAAQAYS5AAAAAAAAABABhLkAAAAAAAAAEAGEuQAAAAAAAAAQAYS5AAAAAAAAABABhLkAACAj6urqwqHkNP9sywAAAABAPiHMBQAAGTFr1iyrrKwMx063Z88emz59ui1atCicAgAAAAAgzAUAABlRVVVlNTU1ZwS6CnIV9JaXl9vcuXPDqQAAAACAgtZAOAwAAJBWW7dudcHt1KlTXYg7YsQI27RpkwtyV69e7e4BAAAAADGEuQAAIKN8oOv7xx07dixBLgAAAAAkQZgLAAAyzge6qswlyAUAAACA5AhzAQBAVlA3CwpxCXIBAAAAIDnCXAAA8kX9G2aNB8IRnJOyq8xKhoQjAAAAAJBehLkAAOSDnT8wq30mHEG3jPqK2dAvhiMAAAAAkD6F4T0AAMhlBLk9RxXOAAAAAJABhLkAAABd0dwQDgAAAABAehHmAgAAAAAAAEAEEOYCAAAAAAAAQAQQ5gIAAAAAAABABBDmAgAAAAAAAEAEEOYCAAAAAAAAQAQQ5gIAAAAAAABABBDmAgAAAAAAAEAEEOYCAAD0gOXLl1tNTU04BgAAAAA9jzAXAACgmxYvXmwLFiywurq6cAoAAAAA9DzCXAAAgG5QkLto0SKbM2eOzZgxI5wKAAAAAD2PMBcAAJyz+mNNtuS5vXbfX71l+w82hlNjNm+rs81v1YdjPW/zW+1Xwa5//VA4lFrxQe7cuXPDqQAAAACQGgWtgXAYAADkqv+4PhzoWWv//aA1HG2y6yYMsgVL37Obrh1so0f1s7WvfGBTJpxn9cea7eXNH9m+gyet8o5Rbt7KdQeC8UYr619sZX2LXOB727Qhtn7zYWs41mTDLiixzdvq7eH7P2mPrNhlpf2K7N5bhltZv+JgG++67d4YbEfDD9xREbQfC25vvPYCe/6Vg8E2+rqA+eH7R9uEy8vcvB5VfqXZ5VVtQe6IESOoyAUAAAB62Lhx42zs2LHufBsfI8wFACAfpCjMXfLsXhfQXnhBiT346A678ZoLbMKY8mD6HjdcECwzfkyZW27+7EtciKvQd97si21pMG3Y4BI3Tctt33XMKm8f5cJdVfzKjmCalpkyflDQbplbtywMd+eH7Sgc1jpaRjTv9yvfsH+sutKN97gwzFUfubromU4uOcEEAAAAeo6uRbF161Y3rMIJ/QqOc+4YwlwAAPJBisJcha1VK3a6e4W3qop9+fXDLpi99+bhLqR97Lm99luXl9lt04a64Pf2b75pEy4vt4ZjzS7I1bC6aFD17r03X9jWNcPoin6u0nbY4N52e7CuQl1V46ra98ZrBtsjT+2026YOddvW9k4Pc3/uKnO1vR4XhrlSWVlpmzZtstWrV3NyCQAAAPSwdevW2cKFC124O2/ePH4RFyDMBQAgH6QozBVV0SqYVciq8FTBrLpG8DRPNE1dJbhuFj5sdF0sKOD1tJwCW1+VG0/riZ+ncT+s9eK3Fz/Pr9ej4sJcIdAFAAAAUkvdm6mbs6VLl9rUqVPDqfmJMBcAgHyQwjC3q3z4q+A2khLCXCHQBQAAAFJL3ZytWbPGNmzYYOXl5eHU/FMY3gMAAKSFqmUjG+S2o6qqylUI6GdgAAAAAHqe+s1ViLts2bJwSn6iMhcAgHyQRZW5kZekMhcAAABA6qm7BV2E+M033wyn5B8qcwEAAAAAAABkvZkzZ7qLoe3Zsyeckn8IcwEAAAAAAABkPd9X7u7du919PiLMBQAAAAAAAJD18vnCZx5hLgAAAAAAAABEAGEuAAAAAAAAAEQAYS4AAAAAAAAARABhLgAAAAAAAABEAGEuAAAAAAAAAEQAYS4AAPmg36XhALqtL48lAAAAgMwoaA2EwwAAIFc1HjA78IxZ89FwAs5J7yFmI/4wHAEAAACQbhUVFbZq1SqbNGlSOCW/EOYCAICsUFdXZ+Xl5eEYAAAAAJwp38NculkAAABZYfbs2bZs2bJwDAAAAACQiDAXAABkDVXnAgAAAACSI8wFAAAAAAAAgAggzAUAAAAAAACACCDMBQAAAAAAAIAIKGgNhMMAAAAZM2vWLJs4caLNnTs3nAIAQA/b8xOzXz9j1tQQTkDG9bvU7DcWmpUMCScAQMcqKips1apVNmnSpHBKfqEyFwAAAACQ++reMNv3E4LcbHPsHbNdPwhHAABnQ5gLAAAAAMh9Jw+EA8g6zQTsANBZhLkAAAAAAAAAEAGEuQAAAAAAAAAQAYS5AAAAAAAAABABhLkAAAAAAAAAEAGEuQAAAAAAAAAQAYS5AAAAAAAAABABhLkAAAAAAAAAEAGEuQAAAACAnLF169ZwCACA3EOYCwAAAADICXv27LHp06fb4sWLwykAAOQWwlwAAAAAQE4YMWKEVVVV2aJFiwh0AQA5iTAXAAAAAJAzZsyYkdFAd/Nb9e4Wb//BxnDIbP3rh8KhM2melq0/1hROOdO+YP6OXcfCsTNpnpbpaDvnSvsWfyzJ+GNPfAwAAD2jaH4gHAYAAMiYNWvWuIqqSZMmhVMAALmurq7OPvjgA3ffkze9nwwYMMAFugUFBTZx4kSzY++YHXo13HLHFEQqFO3dq9D2HzxpHx455W5vvtNg7+8/YRcN6+uWU2D65ttHreF4k104uMQ2b6tz02pe+9Auq+hv5w/oZUue3WNLnttvt37+Ey6kfX1bvX1Yp/aarCBoY8mze23jm3V20YV97Jl//bX9Z7DtwQN7u+36fdix67gb1narVuyyKz5Z6vbDT4vf3x8/v9+e//eDNjjYtpbTNms2fWTl/YvcPvvhHTuP2Y7dx9xxKaDVvqzffPiM5fz+ffZTA+zBR98Oju+w3XTt4LZtlgTbrD/W3Lbu2lc+sJLeRcH4R+5ej8tZlQw1GzzNPXf+76G8vDycCQCn0xd1+uJu5MiR4ZT8UtAaCIcBAAAyZtasWe7D9ty5c8MpAIBctGnTJquurraamhoX2qXDCy+8YGM/sdvs3e+GU9qnQLbqqV1W1q/Ibps21FauO+Cm33jNBfby64ds2ODeNmHMAJsyfqALbuuPNtuFblosfFRV7IKl79r82ZcEy5YE6+93Yee9t4wI570XLNXq2ltZc8Buumaw1R9vtrK+RcE2i+0/36pzAaja1j6oXe3T6FH97LJR/e2pYJ2n/uI37bf/1+agjcFuvgJXLTtl/Hm2Y9dRF+DeeO0Fwfggmx/si+43B+1qPzS8sqbWHYf2W9NE92pDIe2Ey8ti4XQ4rP3T8a5cV+uO4eH7f8Pu+6u37N6bh7vgWMczuqK/20c9Hg3B9kuDY9G9HsOzKr/S7PIq199x/AXsdF4wc+ZMF9oAgFdRUWGrVq3K2yIQulkAAAAAAKScgtvKykr35Z0uVDZnzhz753/+Z9uwYUNKbv7LQW1n7NixbrgzyvorVC1yIeZlo/rFpvUrDu9jgauFNVEKQOO7HlDQ+eCjv3LBrYJcuW3aMDeeSNWtakuhp9rV/cda3TTtg9pRsDp6VH83R9tUWHvb1KFuWNWxftnRo2IVw2pL+64AV4HqhReUBMcVC1c1XH/slFtOobT2YcqE89y4tuPC26DdYRf0cdv2+7f2lYNuujwfDMfWG+SmuSA7eEw0Xdvw/PKdtXr1avfcKaRZsmSJq7DW38zkyZPd3wwAgMpcAACQJajMBYDcpSBXr/O6f/jhh1NeTaWuexQCKshte185uK5TlbmirgIajjXbdRMGuaBWoeT+Dxpt+65jLiRtr9pUwer6zbG+ahXW+kDXUwj7cjC/taDAVeQ+/+8f2PjLy900beuRFbvsxmA9beM/tymIje2D2vXdFaj7AoWw+z444eZreW0zfllRlezrQRvjx5S7kFXBa2m/orZhBc/aju7VtoIBzXMB8gUlpw1r/0r7F8eqiINjUMWuQltVFz8fPFajK/q5bhZ0zI89u9fuu2W4u789eJy0H2cVVuYmoxBXz6XuFfYq4AWQ3/K9MpcwFwAAZAXCXADIXQrj1L1COsK4pEGudCHMTUYhqYLMCZenri9Xdafgu2toj/ZB4bIPd7ONHicFuP6+UzoIcz3/N6QuM+hPF8hvdLMAAAAAAECKKIBTwJqOINd35XBGkNsDFEymMsiVswW5ou4NsjXIFR/gdjrI7aR58+a553fZsmXhFADIT4S5AAAAAICUUfg2derUtPw8XhWb6oeXX3nkHj23d999ty1fvjycAgD5iTAXAAAAAJAyqsydNm1aOJZ648aNC4eQa+655x5Xnau/KQDIV4S5AAAAAICU0EWrFL6NHTs2nAKcO1XnqsJ79+7d4RQAyD+EuQAAAACAlOKCVQAA9AzCXAAAAAAAAACIAMJcAAAAAAAAAIgAwlwAAAAAAAAAiADCXAAAAAAAAACIAMJcAACQEVu3bnVXOG+ProCuGwAAAAAghjAXAABkRGVlpc2aNStpoKugd/r06VZdXR1OAQCgm3oPDQcAAIguwlwAAJARS5cudUFuYqCrIFfTpk6danPnzg2nAgDQTeVXmg35YjiCrNF7iNmo/xWOAADOpqA1EA4DAACklbpRUHBbXl7uxkeMGGGbNm1yQW5VVZWbBgCILr3OT5482TZs2OBe44Hu0t/TnDlzbObMmeEUAPmmoqLCVq1aZZMmTQqn5BcqcwEAQMbog/3q1atdZa4qcmtqaghyAQAAAKAdhLkAACCjfKCr+xkzZhDkAgAAAEA7CHMBAEDGKcjVT3AJcgEAAACgfYS5AAAg41qP1tvJZx+3Uy8+HU4BAAAAACQizAUAABnTUrvXTq74nh398uesccm37MQjX7ejd17nQl0FvAAAAACAjxHmAgCAtGv+xWt2vErB7ees8clHrfVoXThHAe8eF+oe++MbXdDbWrs3nAMAAAAA+Y0wFwAApI1C3GPfuN3dml7quEsFhboKehvu/JwLdwl1AQAAAOQ7wlwAAJBy8SGuhrtK3S4Q6gIAAADId4S5AAAgZRTCdifETRQf6vZEe6lSV1dne/bscTcAAAAA6CmEuQAAZIFNmzaFQ9GnC5epr9uGO69LWegaHxI3bXwxnJpZixYtstmzZ9v06dOtsrLSli1bZhs3biTQBQAAANBjCHMBAEghVWhWV1fbggULXMDXXrCn4C/qfIh79MvhRc1qUx9iKig+vvCP7Oid17mAN5Pmzp1rS5cutYkTJ9rdd99t8+bNs5kzZ9qIESNs4cKFNmvWrLbnv6amxv1tiKZpHAAAAADOhjAXAIAUWb58uQtx5Z577rGqqioX7CXasmWLCwDjxYd92e6MEPdo+vdbF0tTFXA2hLpbt261SZMmuWFVXCvI1fO7evXqtr8Hf68gVxW969atc+sBAAAAQEcIcwEASBEFdArxErtQ0LgCPG/NmjVt4Z8sXrzYBbzl5eVuXKGwfr6fbeFuS+1eO/HYtzIa4iY6LdR97omMXyxNz2Nra6tNnTo1nGKuUlv0/OpvRM+rQv6xY8fSJQMAAACADhHmAgCQAgrofDCnn9v7ilxVaSrAiw/tNKwgTxTkaln9ZF80zwe72RLmqmsD9VV79M7P2annHs+KEDeRC3Uf+wu3nwp30xXq6jnyIbzo+fNBrob13KoC1z/fGlaXDOqOQd1wZFtgDwAAACC7EOYCAJACCukU4imk8+GeqnFnzJjhhv00VeXGh38KenXRLAV7quD1fen69eIretPNh7i6peKiZqmgUFfdLjTc+bm0hLq7d++2adOmhWOxcNdXXfvqW833Ya7uVXmtal2F/n46AAAAACRDmAsAQIr4alzxlbrqC1f952pYXSccOXLELaf5qtpVRa5CPfHra/nXXnvNBX4aTrcohrjJpCPUHTduXFvwLuonOZ7CfXW94Z9H3euiaXre40N9AAAAAEiGMBcAgBTwFZiegjrdrr76ahfSKrBV0KcwT0GuKnEVAqqaV6GthrWc5qtSVz/FT3fgp/Dz6B/fGPkQN5EPdTN5XAS3AAAAAM5FQauuygEAABBoPVrv+sE9+Wx29oWbCoWXjrXeX7jTet1wazgFwDlpOmp2/O1wBBlXdmU4kFn6JcrkyZNtw4YNp/1i5ayOvWPW3BCOIOOy5O9J9Pc0Z84c92uXTtFr08kD/D1li95DzUqGhCPAuamoqLBVq1addhHpfEKYCwAA8jLETVQ4ZIT1vuNrhLrAuWisNdtyn1kTYUnWKBlqNu6HZsWl4YTMOKcwd89PzPYFN2SPUV8xG/rFcCSzuhzmvvGl4DXqQDiCjCsKXpPGVJn1uzScAHRdvoe5dLMAAEAeU4h7csX37OiXP2eNTz6at0Gu6GJp6k/36J3Xua4YAHTBwXUEudlG4dXxd8KRiDm8IRxA1tgb0XC97g2C3GyjCukPgvcMAOeMMBcAgDzU8s5WO171dWuYcVXeh7iJ4kNdBd2pulgaAKAd/Bw++/CcoCc1Hw0HAJwLwlwAAPKILvilC38d/epN1vQS1acdUairoFsXS1O4S6gLAAAAINMIcwEAyAM+xNVNw+gadbtAqAsAXXfkyJFwCOg5dXX8oghA/iLMBQAghxHi9qz4ULfl3W3hVABAe+rr6919eXm5uwe6SxfS04X1ACBfEeYCAJBj3EXNnn3cGu68jhA3RRTqHv3jG3l8gSTqjzXZgqXv2oOP/sp27DoWTu2Y1ln/+qFwLLU2v1Vn+w82hmPpo8fi+X8/6IbnB49PT3v+lQ/CoexSXV1tY8eOJcxFj9Hf09atW8Ox1NP/3fv+6i33mqbXDr1WtfcaomWXPNfxL3jWhq8DVSt2uftk1E7i62eyaSvX1Wbk9QxAZhXND4TDAAAgwhTinqp+zE781f3WtOlFMy5qlnLqcuHUS09b00vPWEH/ciu6dGw4B8g9Ck/+/M//3KZMmWIlJSXh1FD9G7Fb4Jl//bWdP6CX3TZtqG38xRH7sO6UPfH8ftux+5jt2HncBg/sZUue3Wsf1TXZ2lc+sB//0wHr3aswuN9vn/3UANt/8KQ9/W+/DloqsB27jtvf/P1uN17Wv9guGtbXnv/3D+wpBRgfNtov325w82LDR10bb75z1Gpe+9BNezrYF91/eOTjfXh582F7f/8Jty2FMpqeuP7Jppa25Te/VW9l/Yrd+M5gPR3P3/z9Hnv/wAm3j4+s2GXnD+ztjn3B0vds45tH3L4uDY5xZc0B+60x5fbgo28H6520kydbbUIwrkC5pHdRuEytXVbRz/7qiffduhdeUNI2PDqYrnUbjjXZj/95v9tvhTeaN2FMmf3/fvBOuL0ie+SpXTZlwiC3r20umGZWMjQcST/9FP7b3/62feUrX3EBXLzly5fbyy+/bBMnTgynxKl9hgskZaPhfxgOZFafPn1s8eLFNmnSJFelq7+zr371qzZ+/PgzvzRorDU7WBOOnJv39x1391++cZj7/67/Y717x/7vv/lOQ9v/5ZeD15Pzg9c3vS4pYI29bhWFX+IUuPkXDetjfx78v9X/c03/ZbB+4mvZFZeWBq83++z14LUnWK3ttejNYJn4aVp2+65j7jWm/lhz2+tP/GuIH47fz4bjze41WK8nej1SQKxlal77yC66sK/bj+dfOejW1b7u2HXUfvnu0eD1+1jbMV04OOE9oKv6fdJs0ORwBOg6vQbMmDHDRo4cGU7JL1TmAgAQca4Sd8X37OiXP+cu2NVKiJt2uliaul44eud1rmoXyEUKTRTozpo1q8P+KvcdbLRhwQd9fdhXULBy3QGbP/sSW7/5kG3fFQvoFB7s+6DRLhvVP1i2d7Bs72C4n1uv/miT7Q/maX5DMKyQYl6w/svB+qIgV+1NuLzcVbjF2j7s2r73luGuyvemay9w29M+bN5W7/ah8o5RNmX8IBsdbEehp5T1i4US8esr4NU+NATbdYFFa6sLPhRoKIRVoKH1Nm+rc7cJl5e5m6hthSuarmO58ZoLgv094JbX/nr++DVNx69QW+vODra/PWhf7Y0P5ilQ0brXaX9bzSZcVuaOLxh0++TX0f2wwX3cNrOJPmxLssBWoduiRYvalgE6S39PulVWVrrXIv0t6abXplR2v6DXA/3/869j3o6dR8P/yyVtr1OeXn/0mqH/43r9URCs1zs/rP+/ev1Z//rhttcrGR28NqrN+NdPP03865an1wkpDe79tm6bNsStd+M1g9087Yf2Ua89Wt5X+ur1Tm68drBbXi8wet3VsJa7KZiu12R9OaXt6nUJQGYR5gIAEFEttXvtxGPfinSIW9A/FoDkisRQl4ulIZcoLFm9erULTzoKdFWRqw/9+lmygtEp4we6nycroLxsVF+bv/Q9FyDEUyWrQlAFJapG1bCq2GT/wRNtwaXcdM35rj0FFn54dNCu+EBDtF1Vx6k9DauKTsGIwlPfJYHGxa/Xdh/sj4a1DYUnCnIVjoiOQ0GHQg0t4ythVT2r44rfB/EBkCpq2+OrddU9hYIeVQOrAlnbit83HUssDCpxgbVfZ/8HJ4NtnDrjcc0khbTLli2zhx9+2H0RkEgVVVVVVZEKdPU8Ijvob0d8gKtxBbypCnT1WqbXGv86IPo/qf+r8lRNrVtmfPB/WdYG/389/T/WLw78ly1aT6+R8SZcXur+vqZMGOjGtcz6/4q9fur/uL7s8tOSdami1yTR/ui1UttXNw56zVAFsF4bSvvHXkv8a5ja0+uh6Es4vc7Gjin22q7hfcHrr75AE4XJ2kf9KgBAZhW0BsJhAAAQESdXPGqNT34vHMtuxZOut5IvzYkFnY/9xWkBZ68bbrWmV2tcdXFnFV1xtRVeOsZOPfdEOCV7FQ4ZERz716z4+lvDKUD0KShRYOLDXd3b3p/EbnH0od8HnfHDXaVQ+LE/uzwci+ls251ZrqvT5VzW6Yz49Tu7/Q63OabKrOzKcCQ9Nm3a5AJaVXHPmzfPhbYdWbNmjauwnDt3rs2ZMyc28Y07Yj+PTzE9durGQgHddRNioZmC8gfuGOUeU1V+6wuB26YOceNLnt1j997ycTCt4ExtaP3YFxblLujyXzwkUnsKyOIDQU9hmn4CrzDw9W11rhq9u3zQqPCu6qmdZq0FrkK9PVrm3puHuz5fdX/G39VnXgoHsoN/LRL9/ehvTX9L+hvUa5P7EqHuDbO3Kt0yPc3/31v7ykH1fOD+hpL9X1Qf2b8VPAc3XntBOCX5/9v2/i93dllNE02Pn3+2ZfVLAgW+/m8ufnkFvPXHm+zC80vcF3X6/9AjvwAYPM3skj8JR4Cuq6iosFWrVpm6W8lHhLnICXrDXrdunasQSeVPawAg0/TB+LKmOjv2jeCDbkT0+/5aO77wf1nhkOEu1FTAefwbt1vJA99x/fo2bXzRBbTFn5roLiim5Uru+6brg/bkc4+7wFfDJ5Z8y/oG6ygUbn5nq+taIgoKSsuttPq/XP+Qeq/KBfqArP4vp02blrTiDpmRzvMhta+b/g5eeOGFpGFuT+mx8CAfjamyPUfOtwULFrRbSd2TFOD67XTlomd+Pb3H3X333WeEuaow3H/wRKyCe+cxq7yjwlVVKxhVFxT62bcCKHWfoZ+Mq69lhar6ybqCWVVFK8RU5aT7GXlAP13XOgo89fNzVV8rqPXV2GqrasVOV9H42J+Nceso7C3tV+z2RR2XqqpR8xVyqQ1RZbV+Mq+2fTCqKkjts8JgbVcBmX4Or+pqHYfm6yfusertWL/KWlf7q/nu5/XB8eg49X9BgbOqJ1V1qZ/Mq29T/Qx+WHCvINkvp7bUXYhCuvv+apsL6ObNvjg4jvfatqPHS4+Bfkpff1TVmsWuGw9Vmuu4TvOZl7Luvcy/Fon+3vR3p9dCvTfptancgmNNUZjrxQejycSHo9mqvX3UdP0N9fhrMGEuuokwlzAXEaY3an376j9M6AYAuUyVJ8NO1tuxP74xnJL9+n37KTvxyJ9Y0acmWuHFY6zXZ2+whjuvC6avcF1FqMK49y13ulC3+RevWa8bvmjFE6e60Lbl13vbumJQoGul5db04tNBW1dHJsxVON3/iZ9ZTU1NzoS5Cl0Uvuj9d+rUqS6AIdTNHJ0PqRJS9+k6H9Jz77eX6jAX3RCGufr7yGZ6fdTrykMPPWT33HPPGWGuKhvvu2W466JD/X8qyFTAdO8tF7oAdN/Bk20hpa98VVcdZf0KTT9vV2WqqiJVfagqSvHV3q7v47fqXWWstqH5CkRdMJwQ0qlKXAFu/L74LxtUmak2RAGvgtZh5/d2F6xS/8daTpW5a6uudCGx9l9VuOpjVfuncHX960fcsEJW3T/46A4XAuv4FAQ/fP9vuH3Q8bmuOdRnc3CvAFoX0VOwq2D49jCEVfCt/dLP612FZTBPYbIeT+2H2rrxmvPd8Wv90r4KqtWXc5mbpj6kT/OZl6y6utr9389W+jvS35Pek1x1bvmHKQ9zcQ4Ic9FNhLmEuYgo9a2lE1N9e69wo7Pf/ANALlAfuadeikafrApee998lwtzjy+8z4qumGgFQ4ZbYWl5LLB9d6v1/sJd1vTuNmt85Ouucrfkvv/j1lVlbuElsWCqtaHOet9wa6wyN1j2VDAv2ynI7fvNH1rhpbn5ZePGjRtt4cKFLthTf4UKdpFe/nxIPy/W+VA6QnU9353pZiHbdVQt15PVwCmrbOuMDHSz0FX+b1hdLOhv2DmjMnenCyhVoesDVAWnsarYIfby5sPuQlLqF1l9jyr8VPWqQtkHv/cr+7e/nRC2dCZ3YbttsX5GVUWrvwmFpsmoKwWFudoXhaPaF98lgapotU1Vx/pKYVUDKxxWpa/2WSG0wlkdh+Zr/Zdfj13ESl05rKypdUHq6Ir+tn7zR67Kd/NbDW6bGlbFsSp63bEFy+jCW7pXWwqF9cFeIbS2r1Bb7atN9Sk9ZcJ5rgpXgbYeO1Ubx7qGKHXbcP0x91UfqiVuX936cd0COFnWzUIiBbl6bdJ9OrpZ6Ao9R5KuCl1tL13bOieEuegmwlzCXESQP+nTB8ez9cMFALlKoWbTqy/ayX94PDIX2lJ1bRQv1NZV6jZC3UPolg/0nqyf3urDM7+SSR895vr5/GkhWIolDXIlTWFuYkDhxzsKLpKtIwq/FFbFz/chrrsa/IRYv6aq/FT148cXWYstq4BRwZyqGx++/5Nt0+PbUwVkrJ1WmzL+vLZ5CvM66ru0x2R5mJs0yJUe6jNXF5lSNarC1lTzfw8dUSWt+h/V30I28sfgw/MzvoDI4jA3aZDrZqQvzFVXFr5LDs//n9cXD6IvDeK/LIp/vRA/T6G7ltUtfhk/nKwv8Xj64kChv8J/dQHiK63j20rcVux17zz3hULKEeaimwhzCXMRMfoQMXny5LR+cAGAbHfqxaetccWjkQl1c5VC3N664NmnJoZT8sfs2bPde7T7yT1SzoeqviI3HdoNciUNYa6CMFU/uv5QLy9z4YgqDNWvp4JZhRaqJlT/okuf2xtetKoovOhUcdgn6QFXyakwTWGIQlaFGL7NWLihakgFHyOsasX7bt2brhnc1o62p2D39m9usfnup/3vum2qslFBicoj1YfpbVOHujDXV2Vq37UtXa1eFaQP3z/ajadUFoe57Qa5kqYLoKGLsjjMnT59+plBrqQpzPUXEVOXGura4j/fqnNf5MT6PFYo299Nf6rmgAtZNe+xZ/e61xa93iiYVbW3fw3Sa5Krlg5ew9RdhutGI5i3/4OTpv6T128+HMzv61639Hp2+zd/6dryr4vapraj1x0Ftn449tqp17vS4PWqOdijgrZQN9bPdKx6POUIc9FN+R7mFob3QGTopE9v0AS5APAxVYCWPvEz6/PAd1wXBkgvhbh9v73C+n3nqbwMckX95irsy+a+FHOJzocknedDCkomTpx4ZpCbJvXHFTzEKtNEoaqCDt0U5Lq+UceUu2pMBRlP1dS6sCL2k3QFrc0uWE2sivT9i2pdLVN/rMWN6yfst08d5tbRdAW5Go5tszhot7cbHza4j7vIli5AFfu5fn8X6CZSP6fqbqGsXy+3TsqD3CxXVlbm+sjlnB7dpdcm/SrkjCA3zfQ65OkCcnqt0OuPXps0Lu4LoalDXP/Gmq8vmbz41yC9Puj1RUGuuOra4PVFXYBougJb12dyMCwKaRXWirahm5bR9hXyej6oVYCs16qy/voCLNZHtLrZ0GsUgOxHmIvI0YdETvoAILn4UFcBI1JLF2vL9xDX0wdofZhetmxZOAWppPMhd9X/NNLzqy6uMhHkyv4PTriAQqGFKtcUPCiEUCAiqpbVPIUXCkumjB/oghLlqgpCtJzW87S81lcAo+EdOxvcsEJaTb9uwiBb//pHbVVusYrdurbt+fDEd7+gZW665nxTH6ye2tJN6yqE1r0f9z+7zle60Jm72BnQTXpN0mtTJoNcfWGkildV0Op1ozQMVPX6o9cVVb4Ou0CvLX1dgKrXAL1GqX9jL/41yL3ebDviXm/8a5KWVxcY+w6ecMOVt1e41yRxF8ULXpPU/o3Xnh9rP3gN0+tOrDo3tj2tL/oyzL2eBa+j7rVsc/Ba92HsYoEAsh/dLCBStmzZYr/7u7/rfsJJn3wAcHZNv9jkumBoeumZcAq6q6B/mfW6+S7rfctdrg9gfExBrvpx3bBhQzgFqaAqtCuuuCK7fl6Ypj5z0UURuABaUnSzkJ2y/AJoSaWxz1x1qaAvkBTidsaSZ/eEXR6UuXA11c62PXXzoG5oOrv/3UI3C+gmulkAIqS+vt7dZ/JbVwCIElWL9q38rvV/4mUrvv6L4VScC4W4ve/4mvX/8c+s5Ev3E+QmoeoodbWA1FKYKyNHjnT3AIDMi3X90vkgVP1yq9uEdAS5crbt6QJpaQlyAXQbYS4iKVM/7wOAqCocMoJQ9xwR4gIAAADIFoS5AADkkfhQVwElF0trX2Hw2KjvYUJcAAAAANmCMBcAgDykUFcBZb9vP+UCS0Ldj+nCcbqoWf8nfuYuKEeIC3RCUWk4ACAnRfX/OK9N2amofzgA4FwQ5gIAkMcU6iqwLH3iZ3kf6voQt993nnJ9DQPogkGfNes9JBxBVuh7aTQvfiafoDugrDM0os9J/wj/P8hVCnKj+vcEZImC1kA4DGS9TZs22axZs2znzp3hFABATzv14tPWuOJRa63dG07JbQpxe3/pawS4PaC6utoefPBB3qdTTBeZmzx5sm3YsCH7LgqrK8cj84pLzfpdGo5EVFOD2bF3whFkVMnQ4BbxL2v0t6S/KWSWXpv0xZ/ugW6oqKiwVatW2aRJk8Ip+YUwF5FCmAsA6dP0i0128snvWfObr4VTcocualb82Rus5I77rWBIloVhEUaYmx5ZHebmgJqaGps6dWo4BgDZQe+x06ZN42LgQCDfw1y6WQAAAEmpUlVdDuhiacXX58bP4RTi6sJvuqhZnwe+S5AL4DSVlZU2e/ZsW7x4cTgFALKDvizdsmVLOAYgnxHmAgCADqlf3b6V3410qBsf4urCb1zUDEAiBblr1qxxw4sWLSLQBQAAWYkwFwAAdEpiqKuANNsR4gLoDAW56s7r4YcfduNVVVUEusBZqMuXrVu3hmMAgHQhzAUAAF3iQ91+33/eBaUFQ4aHc7KHLmrW54HvWOmanxPiAuiQD3JXr15tI0eOdNNmzJhBoJsl1E9oXV1dOHY6zUvkq6ujbtmyZeFQ6qh/6O7YuHFjWvtv1f4qQG6P5nX3mAAgCghzAQDAOVGoq6C09An1P/udrAh1FeL2/fYK19dvrxtuDacCQHIKcX2Qm3gxufhAt70wEamlsFbhrJ6jZBKn63lSwNhZHT2vmXzOOwosO9KVfdZj193+VxWcpvMijOvWretwe3ruy8qy/1dDANBdhLkAAKDbFJxmMtSND3F14TYA6IyJEyfahg0b2g2IFOju3LmTq8dniILcuXPn2u7du8MpMQo7FbLHP2/6uf+CBQvc1f7bo/DRdwuwfPlymz59uhtWe7NmzXLTREGnKmM1Pb4bAU1buHChG9Y8jStAbS9sFs1XdbevtNV6vno4WfWt2tJxtHeFds1XNbnfLx2TpmkbvipV4/6Ykm1DFIzq79/vvy78p1t7gbDfhtrUMgqCk/2/0XK6eToWia+Y9c9V/La0v4nTPE1LPA4/LX55Pa7jxo1z09Se+McHAHIJYS4AAOgx8aGuAtZU63XDFwlxASAHKYBTWKgwTiGdDwN9EKj5CiNF81XFq2XGjh3rpsXTsgr+FGDqXkGfAmIfRmpdVWEroNQ8BcUKBRVc+kpf36WDr2bVfgwYMMC13V41sJZRQNra2toWzmr7w4cPd8Go1vWho2ia9lHTkh2Hpmtb2je/nh4Dhbvahr58EO2rPyZtI54/Pv+4aliP57x581xbyap1/TFqG1OnTnVtaJqGPU3Tfmg5/3j4tjTPP34a1jF6eoy0H9oHtZf4xYlvV/vrg3r/N6B7zffjGtbx6KZ90Hrah2THBABRRpgLAAB6nEJdBawKWosnXh9O7Rm6qFmvm++00idetj4PfJcQFwBykMI/BZoKPhW6+hBR0xU8KkxUqKl7BbM+/ExWLapgT4HfzJkz3XyFfAoGfXDoQ0C15bere23Tt6uqXbWhgFT3CmU1T20nqyZVm1pG+6qwUtvScgol1Tez32dfdaztqYsABcTtVYL741CoquBV7Wo7akfrSfw2tHxipbLa1uOgdXQsPsTV46K2fb/R8RS+aluqkvaBuR4rH1Brm3pM1a7m+5D9xRdfdI+hHlt/TNqG9tkvq8fIP06J1chaTiGttqv1tI+apsfqnnvuadsX/9gqzFY7/jH329AyomEAyAWEuQAAIGUUtPad95j1f+JlK77+i+HUc6MQVxdc6//jn1mf+75pBUOS/ywaABBtCuYU2imwUxjpA1qFfgroFBwqMFSIp2BP07SODxETqS0FhQpLFegp7NNwfPCrMFR9J/vg0IeEPiTVstqOtqeQVONqS/uobSfyyyjIVMioZRQIa5oPKLVPmqZxtaVxBbU++EzkQ1DROmpL+7N06VK3Pc3XvvvHRoGmr9b1NF3LxT9W2jeFs6I2E2meHjNVGet4xS+neX66nh8f+Oo5OnLkiAt0Nc1TeK1ta980X8ejxzrZdhUiq109honPt+bdfffdbpuar/X9MfnnRfO0jN8fH+oCQNQR5gIAgJTTxdL6Vn73nELd+BBXF1wr6J/8Qy4AIDco8POhoQI8H2AqsFNwp4rS+MDTV2rGT4unIFKhpip5Fdgq1FMFqq8EVdh4ww03tAWKmq9tatxPU4Wpfq6v7eimdRQUKpD0y8TzIbT2VW0pWNQ++GpYzVP4OGfOnLZjVSCrdts7DrWjfdD+qR3d+6BU4wpyNV/tar90rMlomfgqWO2rtq39Skb7o/a0LT0Oov1XNxRqS+vpOdC95uumYd10fFrfB946BoXJeux03ArVE6uHPa2nx03taFjb1L321T8POlYduw/sRcv5/dH2/P5oOgDkgoJWffUHRIS++dVJgy5EAQCIrpbaPdb45KPW/OZr1lq7N5x6usIhw63XF+6yXlNvJcCNCH14fvDBB3mfTjGFFpMnT+7wwl04N5xrRofCQQV7maCqWAWJ+v+nik+FnD35f7E7x6b9UbjZka60r9cbvbb70LiztI7CcwXO6gtYYbnGz1Umn+9sUVFRYatWrTotiAfyVb7/f6AyFwAApJ2v1O337afcxdIKhgwP55i7cJr62u3/xM+s9y13EeQCAM6QyWBPFbYKK1Ul7EPdntSdY1N4ejZdbf9cQlgFLKqg1WN09dVXdyvIlXwPcgEgHmEuAADIGIW6ulha6RM/sz7f/FsX4urCaVzUDACQrRRMqlJVt86Ep+mkcLknKaj2XSt0hdbTvugxopIUAHoWYS4AAMgKvT47lRAXAAAAADpAmIuc5q/K6jvc7ypdRMC30R71mdVZ+jmW+p2KMvV51dXHU8esK9YCAAAA6abz13Q6188e3aWLhXnp+NzRnce1s5+hampq+BwBAAkIc5HT/EmM+mo6FzohSvbTKX+CpqC3K/0/6WSkJ/vU0rF15SRKy3b3pE5Xsj1bn1XaRvzJpB5/XWk2E+IfI4Xz3T3+VMrUiT8AAEDU6RxP5+azZ892QaE/59O9zl/TRds722cPXaSsp/jzR33uGTlypBsWPRbtfe7ozD6ejdrYsmVLONY12tfOfIbSOby2oW4e9Lx2xsKFCzmnBpDzCHORk3RyoZMEhXc6mdPJTLITlvg3+sQ3fbUhicGlTij8yYS2kRhStnfyoPbiT6i0nMJdL3Hc0777fUmkiwrEt6lldcztSVxe33LrWNprX+KPJ/7ES9PbO1Y91ol9Y3V0MtkRHZMPhv32tE78eonDOia/rNbVRRdEz52fnvi4Jnvsly9f3mElgN+WHvOOHg/Rsp1pCwAAAF2n8zGFpEuXLnV9ta5bt85N1/nrzJkz3XB7znYe1xU63+6oj1md83V1W+0tH/8ZR+eyfrvx57jJ6Jw0WaHF2fYr/nOGjrO9xzXZ4xm/T9pvXURO2ttX/zipz119HpszZ044JzbPn4PruHXO7ul8n4ulAch1hLnIOXpz10mb3th9Va2/QEEinfz45f1PfbSeThx0AqiTDJ3sTJ8+3c2TAQMGWFVVVTh2ekipkwp/YpFI7cWfYGk5VQn4fYgfF32rrH3RiVJ8lWs8zdfJiuZrfW1Dw8lOxPyJjdbRNvw33Trh1THopEptxAeOGo7/CZTG1casWbPcssm2Izp+HZP2RSfVCnY1TevFr6Nj1L5on5LRPvrnUrQvWl/r7N69203TsA/stU1tTyd7/iRO2y0oKHD7sm3bNvc3oTb1WPnHWttRe7r3x69hPR/tnYxre9ruvHnz3La0XR2faD+0Xf3daDnR46Xn0tN0reOPTc+B/7vSsskeLwAAgHylwE7nTu2dG+ncbtq0aW5Y53A6ZxedUyX+0k7neTrf8nRO6M9dtbz480p/viialni+7Pl52k9f1KBpOl+MP5/W+aAqaHU+6rebuD/xdM6o/dJykydPdve66RxS54/6jJP4mPjPMe3RZwDto9r262r7uvnjT6TzdrXrafs6T9b0+DDVH3P88WjYr6v52qaOWefKOrZEelx00/Po2/Ln1Lr35+Aa1rH4Y9W4HhP/2a69YwGAqCPMRc5RsBb/sx29ievkIVlgqHlaXvc6sRCdUGiaTgZ0oqWQzweDohMwTdOJQ3yQq5MGf6Ko5RNPqtSeP7HT9nTSoRNObVfjCiA136/nt6FvvJO15U9QdJLjT1x1UqN90nrxdDKkEy3NKysrc23qOP3VbnUypePSfg8fPtxN037pcfMBo99Pta0AePXq1acdv+gx1smW2mltbXX7pX3X4+JP1PxjqXZ0jGpX8xOPUY+n2tA24k/AtZxOoPUc63Hw62k5HaeObe/evW5f9BipfW1H+6LHSjRNx657PS46dp3w63i1f9q29k/bSNwv0XoKWv3jre2qfb+fOlbddIKr9bWNu+++u+3x0uPtnyM9H6Jt6vHVMakd7XuyxwUAACDf6NxL50Y6B2zv3EjTdR6rAFbL6TxM6/lzT9EyOlfVcvHtaFjnXVrPL6/zO03X+aDO0bSe2tb5X2JQ6vdP2/Trax1N0/mf35bGdV44ZswYtz2dt2qaP/9ORuuqTe2P2tKwD5N1vqlt6/zRfx6Q+M8difyyOhadj+r8V+eh/jzV38fTdnTO6otj/OOqc1qdX+tc29N+6th0Ex2vqoD95w6do+ux0S/nXnjhBfd4JtKyWk6fQzRf66s9bdefg4vO4f3jq+3qsdR+aZr21e8DAOQawlzkHJ2Q6MREb/Z64/dv5skqLPVmr+W1jN7sdSKjkyp/gqKTHK3nT2p08qMTEp3UKTD0P0/S8vpGWuso6NTJh9pqj9pRm9q2TrR89YBOSNS233/ti9pVEBhP29VJpPZNy6it+H1MPHnT8Wu+Toz89vxx6WRKoam2r23qXm3ohNWfKGlcJ0d6jDRfx+npWP0Jqt8f3XSS6PdJx6lt+/W0nQcffNDN1+OlcR/2ev44NM+3o+3ocdV+qC0fQOtET8ehYR2LP6HUPuix0/74IFe0rD8hvuGGG9y9HnO1qxNVbVePsdpK9jxqn/T4x++X6PFSu3pM/Dytrzb946ZxtVtfX+/W86G0/q78fmj/tM9aXtvScv6kHQAAIN/oHGnDhg22ZMmStnOsRDpv0vmmDwD9eZQPOTXsg0Cde/l2dO6mcy3/Rbw/j9T5WHxoqGXUfrLta10tq/N2P1/nzpqm7eocU+vrpnNMnefpHNCvp3NH7a9of7SOp3NYra92tYza0P5oX33b/jxWtN/x1HY8ravl9flA56M67/Uhts7LNZzsvNwHuTpGPY5azxdeaF9E4a6W1XmvltexaFt63ETjumn5+P59Jf5cV/viP2eJ2tTjpeONPwfXMlpWj7X/vKN77Zt/PAEgFxHmIufo5Ehv4jqh0Ru5P/lJRm/yOnHQiYBODnSyoxMEnQTp5qtSxVdT+pMGnbxoGU33J39qQycT+rbdn7TEU5CngFjfvmtb2ra2p/Y0Tycqfvv+xETL6uQlkcJkHZ+nEzu1reNvj38ctK62Izqh04mcThT1uOlYdJw6Hs3TPmhcy+uYtJxO4nSsOnad8MafLGkdf/Kl9XQs/jETraNj9dvXCZ0eS23b07Gofe2LTsD9yan2X4+FPw7fppZTYKqTYZ0Y6rFNPLEV/3hpf7QNPb+apm35drW+7rXdxJNfT+v6Dwai/dC29Fjp8Vf7/kTSD/sTcW1L3T7omPV4+qoILaf5akv3enzUlh4fLaP5AAAA+cqfn7VH52fJ6DxL5586T1MbOo/VuZnOrVS84NtMLFgQraNzXZ2zaZ4PLeP581ad1+tcVNvQuJbX+tqWzvF1Tqfh+G1oXe2P1ovfH7URT/uv80JNVzv+M4o/ZrXpP5eoiELjOo/VOWRiW34d/3jopnNPTde0ZJ9j1J7/HKP52leN63i0nrateaq2VVt6zLWf/nHTubra1rHpMdR6Wl7r6bE527mujl3tqF3/GUL7remvvfaa26ZoGd0AIOe1AhGycePG1lGjRoVjHXvkkUdaf/nLX7YGJzThlDMFJ2fuJq+++mrrkSNH3HBwouBuXvw8v7z8/d//vZvnxc9LpHk/+tGP2trRvsWLH58/f37bcu3RccUvo/YT24ynbSej9eKPIV78ccfTcWsfk60Xvx2tG//4a/n4fezo8dK6umk78c+FxK+X2Ib+Rvw+az87w7ef2G57j0viNv2+dkTraJn22j3b+gAQBXrd7ez7NM6d3kv0OCe+H6H7unKuiWjQ69K//Mu/uGE9vx39v3nggQfazskSz+8Sz0fjaRv+XM+f+2qbied3Wib+3Phs+yNqw587atn45f2wltE+xC8X/7kjnqYl22ayaZ7mxZ/D6xj88rrXdv22dB+/3cR1PU3X57X29jPZZxe/TU/rxZ9XV1dXh0O5Sa9NyT5HAPko3/8/FOifMNcFso6vzvTfYuubW/2sZ+fOnW3z9S2vvp3OpW9hdUz6hh7mnm/1zwsAyD6qqlI12kMPPeTGVamlbnQS36f10130HD2uuhCSfnaeWHWH7kk810Ru8xWzqhbVL9fi+4UFsk1FRYWtWrXqtF9nAvkq3/8/0M0Csp5+IqSTav+TIE8fZDRd97n2cxr9ZAgxhNoAkN38T28Txb9PA0A20k/7VTSgn//rYsQEuQCAKCDMRVZTtYlOsBTkxge6/gOiQtxcrNr0/T6BxwIAspleo/U+7Ptm9HL9fRpAbtFnjlwrDgEA5C7CXGS9+EDXf1CM/4DIiRcAAJkTH+jq4jvC+zQAAACQGoS5iAQf6PoPhHxABAAge/hA1/+ChvdpAAAAIDUIcxEZPtCdMWMGHxABAMgyPtDlfRoAAABIHcJcRIoC3aqqKj4gAgCQhRTo8j4NAAAApE5BayAcBpyWDY9a66uxPu/QRX0HWuHn51nB2JvDCQAA5IfmX7xmjSuCc4ij9dZr0g3W6/pbrWDI8HAuepIuMDd58mTbsGGD+6IbPWfTpk2uz+edO3eGUwAgO1RUVNiqVats0qRJ4RQgf+X7/wfCXJzu0PvW9N2LwxGckz4Drfjr77l7AABynQ9xdZ+o1w23Wskd9xPq9jDC3NQhzAWQrQhzgY/l+/8HulnAaVp+uiAcwjk7cdhVNwMAkMsU3h77xu3ulizIlVMvPm0Nd37OTjzydWut3RtOBQAAAHCuCHPRpvW9l63l9SfCMXRHy4bFrsoZAIBcoi4UTj77uDXceV2HIW6i+FC3s+sAAAAAOBNhLtq0VN8ZDqHbVJ1LlTMAIEe4EHfF9+zolz9njUu+Za21e8I5XaNQ11fzahgAAABA1xDmwmnd/IS1HqaStCepyrn13fXhGAAAXVNXVxcOZc5pIe6TurhZz+yTqnNVpXv0zusIdQEAAIAuIMyFQxVpavC4AgCS2bp1q1VXV1tNTU045XS6CFN789KhpXavnXjsWz0e4iZqqd0T2VBXFyHT86SbhgEAAIB0IMyFCxypyk2N1vfWU50LAGizePFimz17tgtyZeLEie4+keZPnTo1HItJR6WuKmaPVylc/Zydeu7xlIW4iU4LdZ97ImsvlrZo0SL3/E2fPt0qKytty5Yttnv3bisvL3fzs6GaGgAAALmNMDffHXrfdbGA1Gl5+q5wCACQzxTQlpWV2T333GPTpk2zmTNntoWAqtSNDwI1HB8QKkCMr9RdtmxZj1aDKsT1fdk2vZS5ClkX6j72F24/FO5mW6g7d+5cW7p0qbvX86fn0j+PCuoV8KpSV8+ZnlP/nOm5UhBM2AsA6Cy9j3TkbPMB5C7C3DxHVW7qtR5631o2PBqOAQDylQ/3Nm7caK2trW6aQj4FtQsWLHBVnqIwUGGvp4Bw3rx5NmPGDDe+cOFCGzlypFunu+JDXA1nC4W66nah4c7PZWWoq+dw7NixbljPoZ4jBfUKen3VtZ4fTRPNV+Cr5xYAgM7Qr0D0RWEya9ascfMz2SUTgMwhzM1nChlfpyo3HVp+Ot/sxOFwDACQjxTm+qrOSZMmtYWAqu5Uxea4cePccgoDfVCoD2map0pcfXDTsIJELaOAV23o1lUKSrMxxE0mG0NdPZfxYa5ueh49PU8KbvWc+udQ66hbDQJdAEBnVFVVuV91JAa6Oh/Q+cOcOXPO6JIJQH4gzI2I5cuXh0M9h4tzpdGJw1TnAkCeU2Wm7zpBFNAqkNW9gkGFfPpwpuBP4z641Yc5BYXr1q1z/bPqg5um6cOc1hkxYkTYYsdaj9bbyRXfs4YZn3bBaLaHuIl8qJttAbQqqtXVgqfnTR++VUmt51vzH3roIfccarqvygYAoCN6H0kMdOODXH05DCA/EeZmmD6E6Wd4s2bNavsAl4w+vPWk1v0/pyo3zVo2BG/AnazOVfWOqq70t6G/C/8TXE0HAERT4sXOFPTpA5oCXX0g03u9hrWcXvf1+u+rdjWseepeQe8FCoD1Ic93vdARH+Ie/fLnrPHJR9N2UbNU8V1DHP3qTS7gzYT451LPT3xllJ6z+A/YqsLWh2+F8b4qGwCAzogPdEXvJwS5AApaKQ/IGPV5N3z4cNcvXkdVNQr1CgoK2j6w+YoPfag7V83fuZi+cjOgcPydVjjj8XCsfarEEv/Tzfg3a43rQ7ymKQjQ34Nuna3MAgBkP72ux1fxnguFuKeee9xOPvt45APcjhQOGWG97/ia9brh1nBK7tO5wOTJk23Dhg28//cwFVqoyGLnzp3hFADIPCpygdNVVFTYqlWr8vZLcipzM0Qf0hTY6WRcFZe699P91ZA99bXmKz60nKp14itAFAprmtbtjNbNTxDkZoiqoVvfXR+OtU8vSLrpOfV9KIqv5FawrwofVWf5e9Hfjj6A6M0eABBd3QlyW2r32vGqr+dMJe7Z6GJp6jbi6J3XZaxSFwCAVNLnvzfffJMgF4BDZW6GqP80BW/6yYT/wOaDXfW7poBO80RBrS6YIpqvkE9VGOpPT1W7Wk8hn5bvTHUGVbmZVXDxFCua/W/hWMf03OsN2/elqPEXXnjBPc/+70KVOQ8//HDblc11f+utt54WAgMAcp+6H2hc8Wjk+sLtaarUVZVur+tvtYIhw8OpuUXnflTmpgaVuQCykX5t0/RqjXuPK/rU1eFUpMWxd4Lb2+EIUqao1KzfJ81KhoQTOpbvlbmEuRmiE0VV5sZ/s6YTR38hFJ2Yq881Bb5lZWVuOVVpKsBTVa4qMf2FNNRvmwJgTdPJfUf956kqt/npu8IxZErR//w3K7hkSjjWPv1NrF692g2rQjs+5Ff1tp57/Y3ow5z+brSM737D980HAMhthLjtU6hbcsf9ORfqEuamDmEugGzhukuqWWNNm1487T3efWn5hTut12en5uyXllmjsdbsjTvCEaRcyVCzcT80Ky4NJ7SPbhaQMfEn3zop17jCWQVwOpFUWKfgtr6+vm1cQZ4qLrW8Knp9Va8qMpXLdxTk2qH3reWnC8IRZNK5PA+q5k58fhXwx3e5oWGFuolfFAAAco8+2OlCYLoR5Canbhca7vyc64ahtXZvOBUAgOyl9/TjC++LdZe05FtnvMereyFN1/ubzgH0Xsd7XIocXBcOIC0aD5gdfyccQUeozM0Q379tfJ946jJBF0NL7CfPd6WgSlzNU8Wlvn3QsKYfOXKkUz+pb3l+rrW8ujgcQ6YVzXjCCsZ/ORxLzof8osprdbeQSEG/v6q2Al91s5D4NwQAyA3+Z5aNK74XfHCL9bePzvPdL0T9J6o6P6AyNzWozAWQCQpsT2180ZoUzJ5jX/d6jyuedIO7ZTO9h6n4SJmIv/aL3suyshhp709iN6TPmCqzsivDkfbRzQJhbn449L41ffficARZoc9AK/76e+4eAICOuJ9aPve4nXz28XP+kIePKcxV9wtRDXV94EiY2/MIcwGki39vP/VqjbW8uy2c2n2+X91s/PJSAa6K02T58uXuGjDx72N6DU789WlGEeamH2Fup9DNQp6ge4UsdOKwtWx4NBwBAOBM+qB3csX3Yj+1fPJRgtwe4ruoOHrnde7nqVGze/du9yscglwAiBb3vv7s4+49qGHGVe69vSeDXFE3DHpv8+9zOo/Ilm4Y9N6l6/3olvg+pmvBKOjVr07VjaToyzVRNa+6ndQNAGFuflBfua8/EY4gm7RsWOxCXQAA4hHipoc+8Ko/3aiFurrgqe9iCQCQ/dq+RGynH9xUcf3rBucR2da/rsLZ+K4BdaF3fVGpi3n7LyzV3aSnawspANZ6AAhz80Lz03eFQ8g6qs59iappAECMPtwdr/p6W7UOIW56JIa62XwhGX2QVZh79913h1MAANlI7+knHvtW8J7+aRekajyT7+tuf4L3OgW7xxf+UUa/xFRfufFfSqprBd9n7t69e928+C8u9d6n68OoWwaFvGvWrHHTgXxFmJvjWjc/Ya3vrg/HUqNg4EVWcPGUcKxnFIy/MxxKP7ft4JjSxV2U7tD74RgAIB/pA5Y+6OnW9FL0fvafK3yoq+dB99kW6urDrH5yOmPGjLztIw4AspkuTqpf1jTceV2sEva57Ozrvmnji21fYupe5yHppGA2/uLe8V0uaFhdLijI9Rd61zxNV/cLGtb7IJDPuABajmv+zsXWejh1QWHh5+dZ4TVzrPXEkeCdq9VanrzFWvf/PJzbNYW/t9ha31vvwueimU9Y89/dHM5Jr8LPzol1TbHtuXBK6ikML5r9b+EYACBf6MNT44pH0/4hyiu6InZhlOY3X7PCS8a4D6Hq4qGrCoYMN2uo69S6usp28y82dWk72ree7lOws3R1cF0szR1jBqmKST9DldWrV9NfbopwATQAXaX3s1M1a6xp04sZez/vCe7CacF7dMnNd6X8PU9fTsa/j+m1N7H7IL3v+ZBX8xVdpf2LTC6Aln5cAK1TIhfm0kfK2ekFTzdV5aa0i4VBF1nxn7zXFhgrjC0YdqW72FrBZ++3lhW3WMHkOWbHD7uQtuj3Fpn1Gegu+tW67bm25VsPvW+tr//YCv/Hs7EQ9Z/mupC4+Ue/7YLVgrFfcMu4dsfdbAUlA6zgwqusNWi3JTy+gmFXWUGwTkHfoH0tNzZYTm2/u95a/nWBFf3Pf7PWfT9362n7hRO+HGtT20rYRmGwz9pfV23cJ9hWcJy+nVTSPhZcMsX9xEQ3IJf41yUgn/lzGP//4eSKR63xye+5aZnS/2/W2smXnrFek663ViuwE1Vft6JLx7gK1YLScmt5Z6sVfWqiC18VwjYp9A0+7BX0K3MBsD7AFk+83nrdMMNO/sPjwSfasOECcwHo8YX3WeElY4Pl6lwYWxi03e+bP7Sj37jDCj8x3Fp+HWxHywfbchrqrPDiMW6wadNLsbA5WKD4+lut8ZGvu+mZoMei37efcqFyus9F9WFWPyn1PzfVT0x5PU0dwlwAnaH3P71H6gvZlne2ufe5XFJ46Vjr/YU7rTg4B8j0l5kZRZibfoS5nZL1Ya5CreXLl7uTWILcztEJ/ptvvunC0FR2saDAtPD3Flnzdy8+bVyhpwtjg+lFM55wIWnBxdfFQttt/2BFtz7uQuaiLz1rzf//T7sAU/tZOONxa93841jw+7//y5qX/nZsGYW6CoX1p1oQfKIbdJG1/NMcF35qGVUC+8rW5idvceFrwZgvWMurj8b2Z02wrWBey/NzXZhrCpy1/a8G2/jOxVYw4U4XfCtM1vYV7LYoXB7/ZRcut773stu3poWDUnqxssLfmW8N/22uXXHFFeEUILfotUlBhC5eMHXq1HAqkLv8OczGjRtdQOTp/4EqK4/+8Y0Zqzb1+j/xMzv55GJXfaowVwGzAtRek26wUxtfsuY3N7lQVuFua0NdGPTutdZf77WTzy634s/e4MLaouB28sWng/sxVnzlRNffb++b77ITS77lwt7eQfv6yamW7XPf/wnaftEKgw+HWk/DBf3L3P60/nqP9bp+hjW/u9Vts/fNd7ufqBYE7WYyzJWSYL9/9Rufsd/93d8Np6SP/mbmzJlD1wppQJgLoCOqvNX7VpP6V8+Tfu31Za5uOlfIO4S56deJMFfn2MpNCHOzlD4A6aqFCgDUJ4r6VKES4ez0GKlvGVWZtvx0fji157kA9UvPWtN3L7ZCBaLBNAWgLkRNDHOD+fbRe2aHYyfGzcF+Ff1OsG/DrnLVr+qewQWvr//YTGGuKn6fvqutHYW5Cotd37LBn6wLg7/+vrWsCbb7bqyKVoGr32bB0Cut9cAbblstm5+IBb1hcFswsMKtX/yXQTtLf9sKb1xkduKIm67tK3j2Ye5p+5PqLiuC/dY29aEfyEX6Qk6VZbopzNXVavmZMHKVLsyhft1E5zAK4/w5jN6jNazAU/3qZZIqcxW4qqqoz0M/dBW4qrxVBe3xb9xhfb+9wk4++4QLd/XzUVHYq4piF7zefJe1NhwJ5k9tq+bV+j7MbdpUEyw/0bV37I9vcvN63fE1F2KrS4de19/atp4oPC4Mlm8J7q1/udvuyeeC9/HgPtNhbr/vr3Xhczrfp0eOHOn+Vjj/TR/CXACJ9H516qVngvfD7Oz/Nl0KgvdlfYmr9+6iT8W6acp5hLnp14kw179Xq4gxX8+RsjbMVYfXCnIfeughu+eee8Kp6JLjh13QmspqUlXHWt+BblhdHagKVuGtQl6Fuq77gq3/EM6/0lqC4UJVvqqrg9+Z5+6LZj5uzcF6hePvtNbjh6w1WE+VuaqELf76e26ZgvFfdl0xqOr2bGGu2ilQ2+oyIdxWu2Huk7fEKoW1/RsXxbaRgTBXj52OGcgHCnX15iv0+4hc5M9h7r77bndl5o5OMnUlaf1EM1MX2lL3Bf6Ca71u+KI1v/uWq6QVVcT2/c5Tdnzh/3JdIRRfH8x/8zX3Yc73easQttcXgvfiYFjztK6Gm15cY8U3zGibJgqutXzRFZ8Jpv+HW09Vvs2bXmwbbnlvmxV+4kJr+fU+935fdOlYF+q21u62po0vuXbSTeF17y99zf3UFLmPMBeA6L0sF/rBTRXXv+6nrs6KPuV7gio9k56vEeamXyfC3MrKSvd+vWHDhnBK/snKMFddKjz44INWVVXFVQq7SVWpvl/ZlOgz0ApVMauQNRi2ff9lLf+lIPROF/Iq2PV95rpp6n9263Oua4S28WBY01z3CAp0NRy0qapiP02BdMuGxbHq3OAv1vW5q75ttwRtKWANliscE6zz6mK3W21tB9t1XTj8zvzY+q4SONgvrR9Oc/uvQFr7qf0N1jNdxE3Lat+CadqWlk1VMK6w2AXVQJ7QCZMPdF944QV3D+QCHwTpJ/EKcjsr06FuMvqQVvCJEW1hb75RuK2wmxA3vxDmArlBv47Rr8G6Ujjgvph8Y5PrA54At/Oi3r+u/k4UDupvRb8GPw1hbvqdJcz1hUE6z87nvDDrwlx9wJ8+fbp7UrryIQjtc/3Kvpe6vnPRPQqri2Y8Ho4B+UNvxHq912u9KhiBXDB58mTXpYK+kD4XCnV1U0Ur0k999xbfcGt4JW9+NZCPCHOB3NCVX4LlYz+4qaIvgtUNQ9T611WY68P/0wJdwtz0O0uYO3v2bHdx2HyuypXC8D5rrFu3zt3TtULPUXcGyF48P8hXOqlWiKtfYwC5QCGQPjx258toffjp952nXF+16tYA6aEQt/cdX7P+P/6Z9bnvmwS5ABBxOs9UMCcKdfX+HK/lna2u+5+GGZ+2Y9+43XUtlM4gV7980c0Pd5cuKppYFav3tsJLxoRj6aFg/MQjX3ePq+6jUuGsL+F1TQ/9rSgojKL6Y03hUOftO9ho+4NbIj/Nt3kubfc0FX4qyNX5tv+/nc+yLszVtyHxFwlB9xVcMsX1KYvso6pculdAPtPVR3XClHiCDUSRvpDWOUxP9AOtnyr2rfyu9X/iZULdFIoPcUu+dL/rDxgAkBvaC3T1C5ijX73JXawzU5W4+uK25Etfc+9BfSq/46YpeFUg6wPY+CDWz/PDbjwMa9300gGxC5iG86RPcB6hi5EWT4r1XZ9Oelz1OCsoV6gbBZkOdHfsOuZuCk43v1XvpiUb1v2Dj/6qLXC976+2ueEHH327bf349cSP+/laXreGY822Pdyu5vs25y99z91Xrdhla185aI8E95mi50LXo9Cv3zSsLvp64lw76rKumwXfxQKVuT1L/cY2/+i3wzFkhUEXuQvIEeYi31VUVNjSpUvdyRMQZTr510/z5s3r+V9ctNTucR86m156JpyC7lAFU68v3GW9pt5KgIvT0M1CftHzrS/iVFDEF8u5T+eaOudUwJjpitF+33/eTv7dYut9y13WagXWuORb1ut3vmjFn51qTRtrgtuLVnLH14J9vcP1Sat5RVdebU2vvhi7+OikG+zEY39hRVdMtOJPXe36+VWFr6Y3v7stuG21ZrVx7zftRNB2a3AekUllL7zjLg6rUC4KVFz45ptvprWbhdu/+Uu76ZrBtvbfD9roUf3swgtKbP3mQ27a6Ip+tmDpe276hMvLbWXNfnv4/tE2bHDvYL0tVnX/b7hQ97apQ2z/wZNWf6zZLatwdt7sS2z+0netrF+RrX/9sN1783B3Ydv/fKvOtaVltOyS5/a6doYNLgnaesse+7PL3Xpa5vVgWbWTFmOqrGZjravC9RTe+pyQws+YrAtzlbbroiEzZ84Mp6CnNK8J3ihefyIcQ6YV/t4id2E1IN8pzH344Yd53UfkKQBSZW4q+/xXqOv61X3p6ay6WFpUFF1xtfX+0te4qBnaRZibH/RzXd9Hpl63FfIpLCAkyE3Lly9v+2m2vnTVl6PqYiGT+v/NWhfANr36kvV56IfW9NIaK7xkrPW6YYYdX3ifq9g99eIz7iKkGlaAWxS8d6l7CJ0D9L7jfmv+xaa2YFcXUVWYq2C38cnvub5rmza+FLR5eca/CNYXqP2f+Jn7wmT37t3h1OykvxW9LrRdyDaNYa4PUH+/8ud229ShpsR13weqoD3pwtb1r8eC3WEXlNjKdbVu2dh624LhMcF6b9gPg2lLn93rqm3Vxv4PG114++CjO6zyjgoXzt54zQUuzF3/+kd23fjzwmrc1mB7BW5ZUbA8f/YltuTZPW6ZdIe5da0X25YtW9zoyJEjqcRNgjA3nxw/bE3fvdjsxOFwAjJm0EVW/Cexny4A+Y4wF7kiHWGup1BXVUX68Eaoe3aEuOgswtzcp0BJz7Ho/ENdPiF3qRJ02bJlZ1zYSl+MZvI9VO9JJ5+MBcq9br7LXfhU1beiKt3SJ162o9+4w1XUKpgtnniD2bE6O7XxpWD4eut9w61tlbnStOlF90uTwkvHuAu5KRhueXeru1eVbyZE7aKi+ltR9XBbkCtpDHNVGaswde0rH9jrb9XbvbcMd5W56tf29mlD3bC6Q/DTVa2rqlmFvApjN29rCOZdaC8H80r7F7v724L1FARrvZXrDth/Bu0qBFbgq6reKRPOC9o/ESwby4huvHawa9Mvr3U1TW3deO0FbpmUO8sF0BBDmJtnWn66ILjND8eQKYUznrDC8V8Ox4D8RpiLXJHOMDdepj+QZjNCXHQVYW7u0+dNUb+LVOLmtvaC3HjNuhDac4+7MDVb3keLJ93g+r/VfiVSlwu9v3Cntby7Len8TFOAqwriXjffGan33qRBrqQxzE0HBbQKeLMaYW6nZN0F0JBahZ+936zPwHAMGTHoIoJcAECP6XXDrVb6xM+szwPfOeNK1vmq1w1ftH7fX+suMEOQC8Crrq52XSwo3CPIzW0Kcc8W5ErRpWPdBUf1Ptr32yvcRUcVSGaSKmnbC2rVzYIuKJZtQa6+PC259/+4C4r2feiHkXrvVbcKSYPcHJT1QS46jTA33/QdaIW/0/MXZkHnFd2afd+gAgCiz4e6+jCqD1X5Rh++1a9g6Zr/sj4PfNeKLmn/wzuA/KTqO98/LnLbtGnTzhrkJlIAqWBXgaS+IM3H99KucL9+Cd939eWpLuYWxYuK6ldVS5YsyfkgF7mFMDcPuYtuDbwoHEM6FYy/0woumRKOAQDQ8/RhVB+q+j/xsqswynU+xNWH75Iv3R/JD5IAUk8X01F/uboaOnKfAvuuBLnx9D6iL0j9e6mC3cJLxoRz85vec9WFgr441uOTC++7qtJX+A9ECWFuniqaQXVoJlAVDQBIF/W35yqMcjTUJcQF0BV798b6Qz3XgA/5Se+lCnb7f/956/c3a2PdMORZl0YuwA2OWwFu6ZqfW5/7vkkXRkCGEebmKVWHFlxMhWg6uarcQVREAwDSKzHU1YeyKNOVuVUlpQ+UhLgAOuvIkSN0r4Buycb+dVMpvh/cPsFxE+AC2YMwN49RJZpGuugZjzcAIIN8qNvv+8+7itaoVRbpQ6U+PPf//lpXJQUAQKb4/nVdpWoO9a+bK/3gArmOMDePuerc8XeGY0ilwk9/mapcAEBWUKirilZVFukDaLaHuj7E1YdKqoIAANkm6v3r+m6LcqkfXCDXEebmOVct2mdgOIaUUFXu9fPDEQAAsoc+gGZrqEuICwCIkvj+dRXs6kJh2fqFaWI/uApwea8FooMwN8+pWrRw8pxwDKlQ+DsEuQCA7BYf6mbyp6Luw2Xw4bc0+BBMiAsAiCoFu7pQWLb1r6v3+JLgvZ5+cIFoI8yFFX72fqpzU0Vh+fgvhyMAZNasWbZ169Zw7HR1dXVufk1NTTgFQDr5n4q6D54Trw+npp7/iaf7cBl8+C0IPgQDAJALFJjG96+bzvdXcQHuvf/n435wg/d6ulEAoo0wF2Z9B1KdmyJFv7coHALgTZw4MWmg64PcPXv22NixY8OpADLBffCc95j7maiqiVIlPsSljz4AQK7Tl6b+/TWVv4bx76++uyIuZAbkFsJcOK7v3IFcoKsn6eJyBWNvDscAeHPnzrW77777tEDXB7m6X716tY0YQVUekA30M1FVE/V0qFs4ZLirEiLEBQDkI9+/roLWnupf13dVRD+4QO4jzEWbohmPh0PoCS4gB5BUfKArixcvJsgFslhiqHuuHzhVgaRKpP5P/IwqIQAAAkn71+3C+6zeW/s+9MO2rooIcIHcR5iLNgWXTLGCi6eEY+gOV5U7iEpnoCM+0JXy8nKCXCACfKjb79tPuVC2sx823QfN8KeeqkQCAABnautfVxcl/ebfttu/bmI/uMWTbuAL0lToPSQcQNrwmHdKQWsgHM4KkydPtjlz5tjMmTPDKUin1nfXW/OPfjscw7kq+pP3CHOBTqqurrZJkyYR5CLyVGmuPqH1RUU+OfXi09a44lFrrd0bTvmYPmz2/tLXqBJCZGzatMn9X965c2c4BblC5xv6JdCGDRvCKUA0tNTuseZfvGZNr9ZY4aVj3Zei+nIVaXLgGbNDvG6kXHGp2flTzc6bHE5ARwhzcYaWl+Zby78uCMfQJX0Guu4VuKAcAOSffA1zPYW6J5973FqDD53Fn73Biq+/lRAXkUOYm7sIcwEAuYIwFwCi5K1Ks7o3whFkrZKhZr+xwKzfpeEE5IN8D3OBXECYm7sIcxF1ykqWLl1qY8eODacAyFf0mYtI2bNnjy1btiwcA/LMwRqC3KhoPGC26wfhCAAAANA9+ix85MiRcAxAPiPMRWTozUuVEgsXLrTKyspwKpBHFBAiOhprwwEAAAAge+lXCQCigzAXkeCDXN2L3mwIdAEAAAAASE6fm/XL1tmzZ9uCBcmvi6PP2OqGBEB0EOYi6/kgVx5++GF3v3r1agJdAAAAAACS0GfljRs3uj52q6qqbN68eeGc02mZGTNmhGNmdXV1tmbNmnAMQDYizEVWiw9yFeCOHDnSDY8YMYJAFwAAAACABFu2bLGtW7daQUGBC2bLy8vddAW1uhBgfFirz9STJk1yw/r8rSresrIyNy4a1w1A9iDMRVbTm4m+SVRwqwA3ng90tYzelAAAAAAAyHd79+51n6OvvvpqV5UrPqjdvXu3u0ni52h1xaAK3mnTprlxddEwceJEPm8DWYYwF1lNbxxLly49I8j1fKDrv2kEAAAAACCfKaxVIBtfcatftCqo1fC4cePaqnT9MhrXTf3nalkNq4JXyysQVgVvTU2NWxZAZhHmAgAAAAAA5AgFsfFdJajLhalTp7rK27lz57rAVsNaRoVRvvtChbYKgRXgarqqexX2alm1qTYAZB5hLgAAAAAAQI6YOXOmq7719ItXX2GrYd3rds8999i6devcRdA0rl++alzDonaOHDnixglygexBmAsAAAAAAJAjFMrGd0WoYXWx4Lsv9PN0r6BW1bp+WvxyCn4V6Ma3BSDzCHMBAAAAAAAAIAIIcwEAAAAAAAAgAghzAQAAAAAAACACCHMBIMftP9joblJ/rMndzlV31/f8/rRH2zjbMjt2HQuHPna2daS9ZXriuAAAAAAASCXCXADIcfOXvmtVK3bZ7d/8pa1cV2svbz7cFsom3hR0Jg6Ln7Zj5zHXhg9E/XQ/HD892TKyL5i+5Nm9bjh+e/6maTt2HQ+WO2kLgn2Pn+ft2HXU1m8+FI59HNDOX/pe27AkG9bjIX58Zc0Be/7fD7rHSAGx347mx28TAAAAAIBMI8wFgDxw27ShVn+suS2cVJj64KO/sudfOWgra2pdaKqQ9ql1B4Lh99x0hZ77D5504et9f/VWGHYet81v1blhBaBqI35Y6yscffDRt23tKx+4cFTTtT0tI5p23fhBbljrrn/9sD0S3Pv90XY3b6tz21n/+iE3329n81v1br3N2+ptwpjYVXW1b267wU3HFzuGd63qqZ3BPoT7GAxretWKnW6dJc/uaQuD1Za2J9pntbc22Fctr3UBAAAAAMgWhLkAkAfWb/7I5v/Pi62sX7Ht+1CVr7EuCkZX9HfVtmYFblzh7bDBvd3wTddcYKNH9bOGY0024fIyu33aUBt2Qe9guNyFsfs+aLQLB5cEyw227TuPurD4pmsHx4LWYHkFrwpMNT2epk0YU+aGR4/qG4awzW7fSoObtjssaPfC80vc+GXBMrH5RS6sFbWtbYim3XvL8OBY+rk2Ku+ocFW96zcfdvPVlo5Ry0yZEAuRFRL7YR2jjkl0jNrWjuB4GoJ7HR/VuQAAAACAbEGYCwA5bsr4QS7IVCXr6Iq+LkBVwKkQs6xvkQtvp4wfaDdeO9hK+xW5QFTzFNzK6FH9XcCpSlUFqmrjwmAdBbJaXlWsCkHVxlPrat22zFrdNhSYarrW9+GrYmNtQ6ZMOM+FwTdee767qV1t19/fdM35bg2tqzYuC/Yr0W1Th7iqXbXpQ2LdV94xytQdg9rSPqlaV6GuHo+H7x/dVpmrfdweLKdt6Hi0v7FK5ib32Ph9BQAAAAAg0wpaA+FwVpg8ebLNmTPHZs6cGU4BPrZp0yabNWuW7dwZ+6k0kFf2/iR260EKOxXA3nfLcBe+ppoCUoWyqng9Vz3RRlqUDDW78slwBPlA708TJ060uXPnhlMARA3nmrmrurraFi9ebBs2bAinANFSUVFhq1atskmTJoVTAOQrKnMBII+p6nb+7EvSEuSKqly7G8L2RBsAAAAAAEQRYS4AAAAAAAAARABhLgCgQ7pYmC6Ydi4XAtu8re6c1tt3sNH2B7dkfHtaZvNbdW44ni6Oloz69j2XfdE6fjvxwwAAAAAApBthLgDkGIWZCmBF92tfOeiCUT/dh6A+aNV0TfPLaRkfiGr6y5sPuYuFPR/M9+1qWQ1rfQ37sNe34YdX1hywhmPNbp329kv8Pqgd7Ze2qb5845fXTfMefPRXrv2G4Ca+XU2TJc/udePx+6FhXbxt/8GTZ+yHxrVd0b1f3i+n4SXP7guPsdldbA0AAAAAgEwgzAWAHOPDUIWvj6zY6UJPBZQPPrrDBZIKVxVOKmhdua42uB2wBUvfc8spqNS4hdfG3Lyt3kaP6ueGFYxqntrY/2GjW1bbeFmBaLBNhai6oFrlo79yw/sPnnDhpyio1bpaTvfx+yVLnt3jpmu9lTW1Vtqv2M1//pUP3PZ007z647H21G9u/dFmt3/xxyUu1A12f35wTAp+ta8aViCtm7YTu6+NBdSbP3Ljst1t6+hpj5e2o2OpCvZZffXq8fAhNAAAAAAA6USYCwA5REGmqklL+xW58WGD+7SFsffePMLqjza5QFVVqrromboemDJ+YCwADUy4vCx2P6bc3Z+moMDdKfjc/0Gs0nXYBSVuHbXj+TYuvKBPW5irYFbLKwyNbfvj/ZIp4we5Sthhg3uHU9ROuQt1Fdj67ZX1DW4KcsP9FX9cPpCVsv7F4VAwHKyjY/S03dgF1FpdmxY7LEdBr5sWaGvXPZ6x9rRdHYs/LgAAAAAA0okwFwByiILO26YOcUHohDFldtu0ITa6op9NmTDIBaUKMW+8drBb5vZpQ23+/7zYBbcP3/8bLqDUcvfePDxszYLxgbb+9cOx9c8vsZuuGezWVyB629ShbYFs5e2j7N5bhrv2FczeFrStIFRtKVgePaq/jQ9D3huvveC0/YpNG+zW13q6177rpu1dF+yDgucbr7nArXNdGMwmOy7Rvuz74ITNn32xzZt9iTsuHaPa0vLxN9UfxwLiWICrx0X7Gt+u3ye1pW4a1F58EA0AAAAAQLoUtAbC4awwefJkmzNnjs2cOTOcAnxs06ZNNmvWLNu5c2c4Bcgje38Su6WZuh1QwJmL1r7ygeueQUGwgvCzUWWuwtxYZe9ZlAw1u/LJcAT5QO9PEydOtLlz54ZTAEQN55q5q7q62hYvXmwbNmwIpwDRUlFRYatWrbJJkyaFUwDkKypzAQAdytUgV25yVcJDOxXkipbrVJALAAAAAEAKEOYCAAAAAAAAQAQQ5gIAAAAAAABABBDmAgAAAAAAAEAEEOYCAAAAAAAAQAQQ5gIAAAAAAABABBDmAgAAAAAAAEAEEOYCAAAAAAAAQAQUtAbC4awwefJkmzNnjs2cOTOcAnxs06ZNNmvWLNu5c2c4Bcgje38SuyEaSoaaXflkOIJ8oPeniRMn2ty5c8MpyHnH3jFrbghHkLXKrgwHzo5zzdxVXV1tixcvtg0bNoRTgGipqKiwVatW2aRJk8IpAPIVYS4ihRNs5DXC3GghzM07hLl5ZucPzGqfCUeQ1fR6PO6HZsWl4YT2ca6ZuwhzEXWEuQA8ulkAAAAAuoogNzoaD5gdfyccAYBomD17tu3ZsyccO9PChQtt69at4RiAfEKYCwBRUXT2iiJkkaL+4QAAAADQNQpy9UuBZIFuZWWlrVu3zsrLy8MpAPIJYS4ARMXgqWa9h4QjyHpDvhgOAAAAAF2zevVqF9YmBroKctUljOaPGDEinAogn9BnLiKFfsyQ95oaYhfcQXZT/4wlBO/5hj5z88x/XB8OIBLGVHXqQmica+Yu+sxFFNXV1bnXJN0r0B07dqwbJsgF8hthLiKFE2wg9+jD1bRp0/iZGCKPMDfPEOZGC2Fu3iPMRVT5QFf94yrAJcgFQDcLAICMevDBB12fXwAAAABOp4IHBbh33303QS4AhzAXAAAAAAAgSynQnTdvHkEuAIduFhAp/PQNyD0VFRX28MMP87qPyKObhTxDNwvRQjcLeY9uFtCmsdbsve8E9wfCCUiZolKz4X9oNmhyOAFAT6AyFwAAAAAA5Ie9PzGreyMW6nJL7U0Xbn73u+EDD6CnEOYCAAAAAID8QEVuejU3hAMAegphLgAAABAx9ceawiEAnbF161b6GwUA5ATCXAAAACAFVq6rtQcf3RHcfmX7DzaGU2OWPLe3S4Hs5rfq3U3Wv37ItdkVWmf964fDMbOqFbtsZc0B27ytzu2n5t/3V9tcu5o2f+m7dvs3f2lLnt0brnEmHZunNnbsOhaOpd6+4PHUMQCdpf6Qx44dG44BABBdhLkAAABAEtOnT3cXTDpXCmtvmzbMbps6xIWiK9cdcIGpgk8NP//KQatasdNN80GtAlQFqQpalzy7x81TaLl+80fBtP1uGYWtEj9f66iN/6+9f4HyurrvRv89cpPLjKIQBRFStSi41FTSBjKm0vNE/PtUzsqFKSva1Zq41D5tTwPB5jntaYykXU9OU4nY0+Z5ov+Y2FVjLeRyjqY5kPQJ1hhIE2zMBZSocXQECajcBuQm5/vZ8/3iiKggw8zvO/N6Zf3y23t/r7/hu3/+5v3bs79Rv6/Y78KiHuUIWGOfcawdna+Ex3FucQ7rn99Tljemz//ZlHTle8bkYPfm685KzSMGp+vff0ZevwqQ4xHnFs+PPb0r7z+Os+LhF4r97M/r/q8LflSeV3s+drVO13pdofHsYp3qfONc41xi/fg5rVj9Yt5Pdbx4PbMXPJL3FYH0DZ9+NH22eM07jE7mCC1fvjyPzL322mvLFgCoL2EuAAAcRgQ/t9566zEFuqF55KA0akTxGDk4jRszLK17ujNNnjgizZw2Ou3YuT+HplVAG+UIUles3pKDywhYIwydPHFkmvlrp+R1ojz7krE5DI3lEZAeatp5LflYEYxeNev0ot5cLnnF9e874+DI2wh049E8fFCuHyqC2nFjhuYRsXGuC66emMYX9dh/nEscrzJuzInpyqLt3OI8m4vXHUFttc669p35OeoRUHetPyyNGzs0v57Yf/xc4lyiPZ5jVPM7i/OPYDm2ibbr3z8+bwtvpqOjIy1cuDDNmTPHNAsA9AvCXAAAOIwIfxYtWvSWA90IMrtGm65PV11+eg5Boy2C3ZkXn5xWP7rtYEga7SEC0hD12ZecmkemTpvSnNtj/WpZtY9YPvs9Y3JYG8fqvjyeIxiNsDeC0mi7/7ubDq4zbuyJ6apZb8vlCEoX3vGLdM/yjflcq3UqOzr3puaRg4vzGFYeq2uKg2r/3adYiO3iEceLQLYa7RvrzJx28sHl504ckUPtaI/gN15PU7mPECFubF/tK34G1TZfXrYxt8EbiSB37ty5ufzJT34yPwNA3TUdKJTlhtDa2prmzZuX2trayhZ4Rcx1FR/I2tu7flkB6m/SpEnplltu8b5P7cV/n6ZPn57mz59fttBfLF26NC1YsCD/28bn1Ozf39v1XCMxojWmW/hQGdY2kji3CKZjVHIEuD1uyqKUmi8qK6/PZ83+IULc6Ldf+MIX8jy58aWMUbkctHZB8abzSFmhV/zGt8sC0BOEudSKD9jQ/whz6S+Eub1v27ZtacmSJfnzQcyHeTzFseIRoVCM2K1jmDugTVmUVv1sVw7l30wEgYK/+qr6aktLS/690jy5vIYwt/cJc6FHCXOpFWEu9D/CXPoLYW7vuvPOO/P0B2HWrFk5fDueAVw1zcK9997bdRxhbr1MWZQ6tp6aVq5cWTYcXnwpENdW/HeJ+orRuOeff35Zg0MIc3ufMBd6lDCXWhHmQv8jzKW/EOb2nghWI8itRt3FCLzjKUZzxmeQg0FuGCBhbjVvbe2ZZgGoCHN7nzAXepQboAEAUBtVkPtP//RPOTjvkyC3wcUNxSKEjUfMRdu9Ho9QzVHbfXkl6vEI13/60fxcrVO1x3NsGzdWq+rVMoD+4r7vbs43l+z+Hlk5kve99cV21c0rK0fyXnn/g103q+xJ8VqOVJxjvL9X7/FAYxHmAgBQCzGXaQS5N910U5oxY0bZevx86lOfql2QG7+s3/61Z9OC236eHit+Gf/s3U+ne5Y9l+57cHP6cvF88x1P5hB2+879OWRY8fCWvH60V7+033jburRi9Qvp9q8/m+vxS/19D24q9vl4fo5gYlGx34V3/CKtXrsth8IRdsQ2AP1FvJ+ua9+ZZr9nbH7vi/fMhcV75YqHX8zLHyuWxXtrvP/F+2q8Zx5azqHo2u35fTgC4XifveHTa/Nz9/VD9+A4lsWxYvs4XpSrL9Sq9sOVq9C5+7nGsthvnEMV0MaxqvOMR5TzOsuL/14Uy6ov+0Jsd7jzAvqOMBcAgFqIIDdC1d66oVFMm1GnIDfs6NyXxo0Zmqad15yaRwxKP3x0Wxo3tmuahGnnteS2DZv3pPHV1AkHor05L9tebBtGjRicZk4bnUOMsGJ1V3AR2868eHTxS/3TafYlp+awIKZgmDxpRF5+/fvr83MCeDMbNu3O748Rxq57Zlf67N3t6UOXn57uWbaxXKN4Xxw5KL833v/g5vx+GiFnLI9t4300niMcXV+878b7Zexv8sSROSiN99x4L35g9ZZcj31EcNz13npiurTYPoLU+MLtY1dPzO+98bju/WfkL+DiC7pRxbFj26hHOZaHCFyjHttGEBv7DeuL84lzii/i7n/w+dw2eeKI8r8LJ+ZwevypXf8N2d65v/jvQGcOf6dNacnHi/P50OWn5Weg7whzAQCohRgl+5GPfKSsHX/VjdXq5Mr3jMnPES7EL/i3/9mU1Dx8UG6LEbUR2sYv7iGC2eaRJ+TgIFKICB4q8Qv9gqsnFuucXPwS35zb4jl+oY/RWREyXP/+M9LDxT5jP/EA6E8i0MyjVnfty++j8d7ZNSr3ldsORSi67ulduRxBbvOIwfn9N95Xu74Ia8r7Wfd0Z35PDhs2v1SU9+f1IyiN0DVs37m33H9Trlfv3bG/Fau35Oc4doTLcZxzi/OJ59u/tj6HwvH+HMcKca4Rzsb7enXecczYR/y3II4dx43zj0eca5xj1zG6RvbuKM83zju2qY4XX/gBfcsN0KgVN6WA/scN0Ogv3ADt+Nq2bVu64IIL8ly5vTHFwpuq2Q3QVjz8Qhp/6okHR9G+kQgvrn/fGWXt1WI/GzbtyaPTasUN0IDKUdwArSvU3H/wS7AIPuN9NELNalmI5bGseeTg/NcREZzGsqocIiittotytU617+7HirC1+7YxmrY6bnUOsaxq716OdUL3c439RRAco4K7zjPC6ZGvOmb39ijHX3Ucep7dz+vgX3gcCTdAgx5lZC4AAA0vwtxw5pln5meOzsyLT8m/1B+J1wtyQ+yndkEuwFsUgWUVtoYY/VqFpdWyanksi3Isr5ZV5Xh03677OpXu9UO37X7cqty9/dB1Qvd67C9C2hDtVbn7Mbu3RzmWVfs+3HkBfUeYCwAAAABQA8JcAAAAAIAaEOYCAAAA1MT9392cVjy8pawBA40wFwAAAKCPxQ3Jbrzt5/lx8x1Ppqs+8dOybV1aWNTjBmQ3fHptuu/BTWlH576D624o1gEGDmEuAL3quuuuSx0dHWXttRYvXpzWrFlT1qBxLVmy5A2v5eXLl+cHAMCR2r5zf7r04tHpnefFDcwGpfsf3Jw+dPm4dKBYFiHu7EvGpmnFssee7sxB77gxQ9MP13bdJBQYGIS5APSqlpaWNHfu3MOGYAsWLMgBWawDjW7VqlWvey0vXbo0f3HxzDPPlC0AAEdv2nnN6f4HN+XRtzOnjU73fXdTWv3otjR+zLAc9kb4O37ssHJtYCAQ5gLQqxYtWpSmT5/+mhAsgtwIx+699940YcKEshUa1+tdyxHkxvU8b968dO2115atAABvLALaz//ZeWn2e8akK4vH5/9sSpo2pSV98rqzusrnteTneHzo8tPz883FsmgHBg5hLgC9rnsIFmJqBUEuddT9Wt62bVueVqEKcufPn1+uBQAA0DOEuQD0iSoEqwhyqavqWo65nuMhyB0gBo0qC9SCfy8AoJ9oOlAoyw2htbU1/xLU1tZWtsArqvkJ29vbyxag7m699db8ni/Ipe4WLlyYr2NTKxwfMZVFfE586KGHGuP9YucTKbV/LqU9z5UNNKzTPpjS6R8oK2/MZ00YANYuSGn7I2WFXvEb3y4LQE8Q5lIrPmADwMDUcGEu/ZLPmjAACHN7nzAXepQwl1rxAZsB79l/SGnzsrJCwxp2ekq/8vHi+bSygd6ybueT6V9f+G7auX9X2cKxGDFoePqd02anU4eMLlv6jjCX3uCzJgwAwtzeJ8yFHiXMpVZ8wGZA27w8pSc/U1ZoeC0XpXTeorJCb3h+74vpz3/+6bJGT4kg97/96p+Vtb4jzKU3+KwJA4Awt/cJc6FHuQEaQF3sNi9jrezeWBboLfdt+lZZoidFSA4AADQGYS4A0C+s63yiLNGTZpw0rSwBAAB9TZgLANTe97b80AjS42T22MvKEgAA0NeEuQBA7d1vioXjYvLIs9OpQ08pawDQDwwaVRYA6kmYCwDUmlG5x89/OuWSsgQA/cTYWWWBXnHaB8oC0FOaDhTKckOIuxTPmzcvtbW1lS3wCncYZkB79h+6HtTDsNNTuugfywrH06Kn/kdat/PJskZPOXXI6PTffvXPylrf6+joyJ8TH3rooTRhwoSyFXqWz5owQMSNhd2s9viLz8PDTisrQE8R5lIrPmAzoAlz60WY2yvipmeL2j9f1uhJ14z/nTTj5HeWtb4nzKU3+KwJNKolS5akyy+/PLW0tJQtwEBlmgUAoLa+t3V1WaInxajcRgpyAWCgu/HGG9PPfvazsgYMZMJcAKCWYp7clVt+WNboSYJcAABoTMJcAKCW7tv0rbJET3v3SdPKEgAA0EiEuQBA7RiVe/zMOGlaOnXoKWUNAABoJMJcAKB2Hut8oizR02aPvawsAQAAjUaYCwDUzv2mWDgujMoFAIDGJswFAGrle1t+mKdZoOfNGP3rZQkAAGhEwlwAoFaMyj0+zjxxfDp3xFllDQAAaETCXACgNtZ1PtHjo3LX/+CZtPJvvpNWf+6h1L7iifT4N9aWS95cbLvpZxvTj7/0g7Rz046ytZ7+0ymXlCUAAKBRCXMB6BEbNu/Oz+ue3pmf38iRrPNWVedB/3TfcRiVu/lnz6WT335KGvfOM3O9fcXjOdzdu3NPDnj/7eZlOeRdu+SR3L7+B0/n9rzudx7P68e6a4rlq275Ttq8ZmNa+ZnvpB/f9YO8TuemHemHxfqx7YYfPJP+beGyvK/qOdq7L4v99bZTh4xOM05+Z1kDAAAalTAXgKOyfee+g4Fp9/LNd/wi3ffdzen2rz2b6yGWxTrdH+uLttVrtx3cNp4r1Trd9999eVjx8CujMmO97vu4+Y4n04Lbfp7L9D8xInfdzifLWs+Z9FvnpDFTT8vB6tanXkjjf2NiDndjhO6IsaPSOf95ah51u6VYlg6k9MS/PJpOKpaHk3/llDT2/NNzeWrbRWnLL17MYezQkUNT58YdOeTd/LONaW/nnjRkRNH2yx1p7NTT8zbxHPsf/+tdx9u05rk0sqhPmnlO3l9vmj32srLUuLZu3VqWAABg4BLmAnBUbrzt5+m+Bzel1Y9uO1i+Z/lzedm69s78HKpgN9a5Z9nG/Fixeku6/8HNacXDW4rtt+fgNeqVde078/qL7n46r1OV7y/2FSLIjX3GIwLc+4pt47Fh8568fMHVE1PziMG5TP9zPEblhl/+dEN64ptr05CRQ9PwsSPTkBFD8uOkt49OW37xQnr8X9akSZeenQPa8b9xZjpw4EAOf8OIYv0IgGP9qj6xWDeMfNuoHODGuhHmDh01NJ30K6PzuoPLY8SyCH/jOGOmnJbPobfFqNzJNZgrd/v27fl5woQJ+RkAAAYiYS4AR2XmxaPT+s178lQJXdMlNB0MUCdPHJmX59G1m3anS4vyuDHD8rJo29FtlO3kiSPy40OXd41qrIwv1o/tIhiO/V51+WnpsTIknnZec7F8aJr9njHF/vbnUb7xqAhy+68Ylbtyyw/LWs/61d+emqbf+FvpN2++PJfPKR8xYnbGx7vaR7xtVJr2h6151GzUYyRtiPqF1/x68fiNPMo2lsWo22l/1JrbQ4S60X7h7/96Ho0b+47t47laFseJEcGxTm+LIPfUoV2vp5EtWbIkTZ8+vawBAMDAJMwF4KhEKNs8YlAOYq9/3xm5HuVpU7qC1nFjh+aRs1e+Z0weSRvTIEyeNOJg+Dp50vC87gOrX0xNxf7uWfbcwRG2qanpYGAb60yeODx9ednGdFUZ+EZY+8nrzsoBcYS+NxfleMTxK7Ed/c/xGpVLPaZY6OjoSEuXLk1tbW1lCwAADExNB+JvBRtIa2trmjdvng/rHNaqVavS3LlzU3t7e9kCA8iz/9D1qJnbv9aRZl58Sg50DyfC4JheIcQ6/WZ07bDTU7roH8sKx+rPf/7pPDqXnjXjpGnpmjPmlrXGFf/tj0D3oYe6bjwHx4vPmkCjmjRpUvqnf/qnNGPGjLIFGKiMzAXguLr+/RNeN8gNEd5Om9KSH6ZJ4HC+t+WHtQhy42ZnRypuqBaPo3E0+z9SjT4qd9u2bQeD3HvvvbdsBQCAgUuYCwA0tPt7aIqFCEO3tr+Yn6sgtap3L1frhUPLsV339Stxg7Mf/v1DB7ev9r9zU+fBbVbd8p3cFuUf/v33Uucvu9qrdattq8ehx135ma7te8rkkWc37Fy5Ed4uXrw4/8VWFeS68RkAAJhmgZrxp28MaDWdZmHAMs1Cj4hRuXet/+ey9tblMPRvvpOGjBiaTv6VU9Lmn21MZ//nKWnLU8/nwDVuTLb1qRfyTcwiPB0yckgaXKy7t3Nv2pfrQ9P6f38mTZp5Vlr/g2fyDcxGjB2ZNq3ZmGb86W+lzcXz+h88nfe/pdjPzl/uSBd9+DfSz+9fk/c3aebZ6fF/WZtm3PhbKT54Pbhweb5BWvt3Hj+4PPYxpjiPsHbJj9JJk07J59r9uHGztJ7yX878/fRnv3NjHv3aSCK8DS0tLekjH/lIuvbaa3MZeoPPmkCjMs0CUBHmUis+YDOgCXPrRZjbIxY99T/Sup1PlrW3LsLctUseyWHtmKmnpUeX/DiNeNvIHMju3bk3jXvnmWnDD59JW37xYjrnt6ek9f/+dBo6amja+cvONHjkkHyzvq1PvZje9acz0+q/fyiHu7GfpqamdM5/jvWfSVvbX8jHimNsXvNcfo71Ir0dWRzr599YezCMffDm5WnizLNzkJvT3eL/Nq/dmMZMOT1v077i8TT1d96Rn7sft6fC3FOHjE7/7Vf/LC1btqzhwtwwderUdP7555c16D0+awKNSpgLVIS51IoP2Axowtx6EeYes3WdT6RF7Z8va8cmpkHII2dHDs0h64Z/fyaHqRHwnvT20Xlk7tMPPJGGjx2ZRhbLYxTs2KmnpS1PvZiD2BzKpqbU+cvteQTthb//63mkbWz7q789Ne8/Rv5GEByjcyM8HnP+6WntPz+ShhbbxijcNUV57PmnFY+u9lj3kS/9oNj/qDSl7aL046Icxv36mXnk8MTfOrt4fi63xZQMTcX/pvzORbl+rK4Z/ztpxsnvLGtAxWdNoFEJc4GKMJda8QGbAU2YWy/C3GP2pfX/nFZu+WFZ63tr/vlHad/OvTnwjQD3UDGKdtLMc8pa46pG5QKv5bMm0KiEuUDFDdAAgIbz/N4XGyrIDTHtQYywPVyQG+oQ5AYjcgEAoL6EuQBAw7lv07fKEj3t3SdNK0sAAEDdCHMBgIbSiKNyD2fLUy903cCsm0PrW37xQl6vUcw4aVo6degpZQ0AAKgbYS4A0FAe63yiLDWux7+xNj3xL2tzWNu+4on86Ny0I/3rn96XA91YHm1xc7PqxmaNYPbYy8oSAABQR8JcAKCh3N/gUyxESLu3c0+KW8hGcLtz0470+DfWpJ2/3JFGjB2V9uzYk1JTBL5r8vK4aVojMCoXAADqT5gLADSM7235YZ5moZFFkLt3V/HYuSdtferFtP4HT+cQN+wr2jav2ZiD3SEjh+a2RjFj9K+XJQAAoK6EuQBAw2j0UbnhnN+eksZMOS1Nmnl2mnTp2WnKnIvSpN86O40cOyqdV5RPmjQ6nfT20emc/zwl7enck+t97cwTx6dzR5xV1gCARveFL3whbdu2ray91pIlS1JHR0dZAwYSYS4A0BDWdT7R8KNyK+N/Y2Ia/+sT04i3jXpN+eRfOSVNmnlOLg8ZMTRdeE3fj4j9T6dcUpYAgEYXIe6dd96Z5s6de9hAd/HixenGG29MW7duLVuAgUSYCwA0hPtqMCr3aMUN0Pp6uoVTh4xOM05+Z1kDABpdS0tLuvfee3OQe2igG0HurbfemhYtWpTOP//8shUYSIS5AHUxqGtOTmpi0MiywJGIEbnrdj5Z1uhJs8deVpYAgLqYMGHCqwLd0D3InTNnTm4DBh5hLkBdjH63QLdORreWBY5EfxyV2whiVO5kc+UCQC11D3TDqlWrBLlAajpQKMsNobW1Nc2bNy+1tbWVLfCK+I9XfCvZ3t5etsAAs/u5lLY/UlZoWENPT6nlorLCm4lRuX/+80+XNXrSjJOmpWvO6BrNA7w5nzWBRhQ3OrvuuuvStddeK8gFhLnUiw/Y0P+sWbMmzwsWIw8YmL60/p/Tyi0/LGv0pP92zv+eTh16SlkD3ozPmgBAozPNAgB9auHChWnJkiVljYFoXecTZYmeFKNyBbkAUEOd+1La+FJK7TuLD0o7uh5rtnc9ohztz+5KaevelPY11Pg8oBcIcwGAPvO9LT/M0yzQ89z4DABqIgLZCGcjrF35QkoPb41vu1N6umjbuLvr8fyerkeUo/3JnSn9eFvX+vEc2+9+udwh0J8JcwGAPnO/G58dF5NHnm1ULgA0uhiB+0RnSj94sSucjbD2rYy0jRG6sf2/F/uJYDcCX6DfEuYCAH3CqNzj5z+dcklZAgAazksvp/TYjq4RuOtf6tmpEiLYjakYfrClKywG+h1hLgDQJ9z07Pg4dcjo9I7m88saANBQYjqE/9iS0i+P8+jZl/aX0zXsMK8u9DPCXACg18VNz9btfLKs0ZPMlQsADSgC1ZgTN6ZD6M1wNaZc+I+t5tOFfkSYCwD0uu9tXV2W6EkxKnfGye8sawBAQ4hpFWKUbMyJ2xfyKF3TLkB/IcwFAHpVzJNrioXjQ5ALAA0mgty4Kdnu/WVDH4nRwBEox5y6QK0JcwGAXrVz/66yRE9790nTyhIA0OciQG2EILe7mOrBCF2oNWEuANCrzjxxfJohdOxxV469LJ069JSyBgD0uSc6GyvIDXnuXjdFgzprOlAoyw2htbU1zZs3L7W1tZUt8IpVq1aluXPnpvb29rIFqLvo09OnT0/z588vWxgoYroFesbwE05MIwYNL2vAW+WzJtBj4sZj63aUlQZ06tCUpjaXFaBOhLnUig/Y0P8IcwFoFD5rAj3iKOfJXfEfD6UHfvRQmnbuRWncqafntigfdxe2pHTSkLIC1IVpFgAAAAB6yi9fOuIgd/3mjen2++5KH5v7h+mHj/0orXvm8XTPv3413fi5m9L2nTuKZf+QFv3T3+fyPd/+alr4xc+kDc/HNv/wqnK1zlFpdx8DqCNhLgAAAEBPiLlon9tTVt7cjl070rlnnpOaR4xKC+b+cRo1fFSaNvnCNO6U09I93/5K2t65PU0ult/+/9yVVq/7Ubr0Ha3py99amlb8x3eLdUfmUb3rnvl53leM7j0qW/d2PYBaEeYCAAAA9ITn9xzVTc8mn3l2euyZx3NYe+PnPpHbItiNRyxb1/FEeuCRh9K5E8/JI29Xr3sklyMA3r6rs1hvZNFePI9sPjhFw1ExOhdqx5y51Ip5zKD/MWcuAI3CZ03gmP14a0pb95WVI7fh+efyqNzDidG7EdRGmPtm5aM2uCmlXx/d9QzUgpG5AAAAAD3hLQS5IYLYakTuoY8qpD2S8lGLaSG2Hvm0EEDfE+YCAAAAHKu6zj+75a0F0EDfEOYCAAAAHKtdRz5XbkPZ/XJZAOpAmAsAAABwrI4hFF2/+bm06N7PlbU3dt9Dy/Icu/d8+ytlyzF6qaYhNAxQwlwAAACAXrTwi5/Jj3XPPJFuuOVj6fb77ko7du5Is//3q/LyG/4m2v4h3fi5T+SQ977vLUs3/v1N6Z5//Upe98vf/mrx+Epa8R8P5e2v+tQNOdyNcjzipmhHbH9D3RcfeBPCXAAAAIBeEqNwH3vm8TTu1NPS6sd+lG9gdtV755RLXxHLbvnDv0wz39GaduzsTJPPPDutePihNO3ci4q2dx9c5/rZv1csOyvvd/a7L0/TJl+U1hX7B/onYS4AAABALxk/5vQczK5//rk07tTTi5YD6cvfXppGDY9Q94N5xG7zyFE5xI1yBLaPPfPzvG20n3vmOWnFf3wvjS+2nd36/8ujdXfs2pGmnfuOvI8Ih4/KsEFlAaiDpgOFstwQWltb07x581JbW1vZAq9YtWpVmjt3bmpvby9bgLqLPj19+vQ0f/78sgUA+obPmsAxee6llH7eWVZq5NShKU1tLitAozMyFwAAAOBYjRpSFmpmpJG5UCfCXAAAAIBjNWpQSoObykqNnFTTEBoGKGEuAAAAQE/ohVGu23d25kePiPD5ZGEu1IkwFwAAAKAnnDG8LLw16555Ij8irN3w/MaDbd3L93x7aXrgR9/N66x+7JHc/pbFfLlArQhzAQAAAHpCTFnwFqdaWL/5uXTzF/86ffnbS9Pt/8+X0g23fCzd99Cy4vH/5vYo337fl9LqdY8U625MV//l9emef/1KWvEfD5V7eAveNqwsAHUhzAUAAADoCRHkjj+xrBy95uGj0rTJ70jnTjwnjTv1tLRj14407dx3FOXT08PrHsnLJk84J23fuSMvnzb5onLLtyCCZ1MsQO0IcwEAAAB6Sky1MOzo45bmEaNycDt+zOk5vJ35jtZ0afFY/diP0rlnnp0+NvcP8+jdlA6kmb/WmpdH/dyJZ3ft4GidO7IsAHXSdKBQlhtCa2trmjdvXmpraytb4BWrVq1Kc+fOTe3t7WULUHfRp6dPn57mz59ftgBA3/BZE+gxW/em9ONtZaUBxejhs4W5UEdG5gIAAAD0pJjC4BimWziuTjwhpUkjygpQN8JcAAAAgJ4WI19PGlxWGkQEuRe2vOWbtAF9T5gLAAAAcDxMbUlpZIMEuhHgRpA7bFDZANSRMBcAAADgeKgC1L4eoRsjci8+SZAL/YAwFwAAAOB4yYHuSSlNHF429LIIko3IhX5DmAsAAABwvMVNxyaPTGlYL0UxESJHgBxBsiAX+g1hLgAAAEBvOO3ElC4+uStkPZ6hbozGjWkVIkAG+hVhLgAAAEBviRGzEbLG1AdnFc89FerGfsefmNIFxX6NxoV+S5gLAAAA0NtOHJTSGcNT+o3RXQFsBLEjjzKAjQD3tGEp/erIlH692M/ZxfPJQ8qFQH8kzAUAAADoSxHARhAbUzDMOKUr3I2ANqZjOPQR7VOau8LbWHfyqJROP7Er2AX6PWEuAL3qiiuuSIsXLy5rr7Zt27a8/NZbby1bAABggIlQNsLdCGhjOoZDH9E+ZmhKJ4p0YCDS8wHoVddee20Oaw8NdCPInTt3bn5ua2srWwEAAICKMBeAXjVnzpy0aNGiVwW63YPce++9N02YMCG3AwAAAK8Q5gLQ67oHumvWrEl33nmnIBcAAADehDAXgD5RBboR4kaAK8gFAACANybMBaDPRKD7L//yL4JcAAAAOALCXAD61NQxJ6UzRp9U1gAAAIDXI8wFoNcd2NiR9tz9t2nnf70q7bjm0rRjzjtyee+3vpIOdG4v1wIAAAC6E+YC0CsipN3ztS8eDHB3/+Ntaf+Pv18uTbn80mc/noPdXZ/6g7Rv5bfKJQAAAEAQ5gJw3LwqwJ3zjrT79r96VYD7eiLIjUB3x5xfywHvkWwDAAAA/Z0wF4AeFQHuvu99Kwe4nb//m0cc4B7Ogc5teeqFvK9rLhXsAgAAMKAJcwHoEV3TJPxpDnB3/eUf5HqEsT3l5Y0drw52P/9X6eUn15ZLAQAAoP8T5gLwluUA9/N/ladDiJB177e+2qMB7uvJwe7Xv5g6/+jKHOzGVA4HNj5bLgUAAID+SZgLwFGJAHfP3X/7SoD79S/2SoD7eiLYjakcdlzzm2Wg/BXBLgAAAP2SMBeAN3VgY0dXgHvNpTkw3f2Pt/VpgPt6uqZ6+LhgFwAAgH5JmAs0hKVLl5al/qPuryluZBbTF0QoGiFuDnA3dpRLG1/3YHfXp/4gB7sD3bZtvRvAL1mypCwBAADQE4S5wHG1atWqtHDhwnTdddfl58OJdY5FR0dHmjt3bn7ua4sXLz54Hs8888wxv7be9qoAd8478vQFEYrW3b6V3+oKduf8Wn5u1NcUYeuaNWtyCHrrrbemBQsW5McXvvCFrhWOQew3+uDx7ifLly8/eN2feeaZ+XUAAADQM4S5wHFRBaw/+9nP0rXXXpvuuOOO9MlPfrJc+moRXE2fPr2sdW0bgdCRiHUj7Fq0aFEOwiI0PlqHC7ciPIvwK0QwdaSjbFeuXJkmTJiQy/G66xBkRYAbo1YjwO38/d/sNwHu4cTUEAdf6zWXNlywG9di9JmWlpZ8/UWfiWs7rqUQ12X3LwiOdKRt7De2jX1V12d3h9tP9MGqH8b2R3otx3GmTp2ay9Gv++OoewAAgL4izAWOiwiiIjQ6NASK0CjCnu4BT7RVAVOsH+HsGWec8ar6pz71qVw/VOy7CqgiQIpyqEYgHhpAVfuL5xAjaauRwyHOJY510kkn5UAtwqxly5alWbNm5XJsW5177CO2q/YVIVv1mmPdqr1RdU1D8Kc5wK1CzUacB/d4iRunHRrsvvzk2nJp34hruK2tLV9H8YhrMMR1WV3L0RbXYFxf1Wj36lq88847c/1Qse38+fNzOfYV61ahcGwT9aoPhOgXESrH+VTHiWA2yvElTXWcal9V6Bv1SrTF+0Dso3s7AAAAb50wFzguqtGFMaKwCli7/5l3FVJFoFSNyo32CEtjNOL555+f2yKEuvzyy9PWrVtzvbsIiOJRBcExwjeOW4Wq3UPbSrRFqBXLY9uYCiFGDVfn09ramsOnOXPm5NA59lmNKI5QN/5svFKda+wrzjNeW+wz1mtubs77aTQ5wP38X+XpBiLE3Putrw6oAPf1VMFu5x9dmYPdmGqiL2+c9uyzzx68rsMVV1yRr73oTzH6O77siGuuWieuxQiB43o+VPSJ0H3d6ANVv4tt7r333lwOsfzAgQN5nThW1KMPz5gx4zXHiWv+Ix/5SP6yI/pKLI8+EOXoA91fAwAAAMdOmAscFxGiViMMq3qEoxFGdR+1G2FQFXpGCBShagRI1SjBCGYjjIrQNEYDVqMJQzXqrxIjASMEju1jWRw/VIFujDaszimOFfXqPEJ1/AhyQ7RHUBXiuLH8Xe96Vw6uYvRu933FdvGI0CteYwRfsX0VEvel1wS4X/+iAPcNRLAbU03EjdM6/3h2Dnl7O9iNa/jQLwO6X5cxcjyu8Qhko39EWwSsEcBGP4trslKtF+I6jlC42ncEwtX1X4l1uvedKMd1XB0nvliJ40T/CXGthzhm9IebbrrpYB+I7ar+AQAAwLET5gLHTQQ7lRipF0FrPEcQFCFShE4RjDY1NeUAKeoRhkbYVIU/EUJFOZZFuQqlQhWkVmK9KjwKEX7F+jFaMB4RdsU2sa8IkWPZ9u3b87nEOUXoVYW3lSqoigArArDvf//7efsYGRmjF+O8Y18xejj23T20ij+FP3R/veXAxo605+6/TTuuuVSAewxefmJNnn4hgt2ukcy9E+zGtViNTo9rLPpJJa6zuGbj+q3WiesvruXqWux+HYbu/WTKlCl5n9Enqus2vpyIcqwX13m0he5BcKiOE9vGevGo9hV9Jbav+kyI/l4FwwAAABy7pgORRjSQ+BPnefPm+eWPw4rQIOZrbG9vL1toVDGCrwqEQtQj2IkRe92Dpmiv/lw8AtUIg6oAKNaLKQviuXtA1F1cD9U0CTGaMdaLfUa9Ok7sM8rxHPuLY1X7q0LmCKUiuIr1qvOOkb5ViBbbVvuv9hvbVvuK5RHyxmsIMYq4GsHYW/KNzL7+xbTvx6sa6qZe/dHgGZd1Pd49KzWNbC5be05ci3FNhrieQ/f+FOL9sApa36ifxLUZYWv0kxDXbawbwWyI6zymRKiu4+4BbvfzCIceJ/YVqgC5+mIkxPlFn6iOC1AHPmsCAI1OmEut+IDNoSJsipA1QuJG0ZvnlAPc5UvTvlXfEuD2gaaRLWnwu8tgt3g0qghsI2ztPsr2eKq+3Dj0yxuARuezJgDQ6IS51IoP2NAV4O773vK099tfEeA2kBNOm5AGXfiuNOS9H8zPANSPz5oAQKMzZy5ADUSAm29k9tk/TZ2//5t5HldBbmOJG6fFnLoxt27nNZfmf6OXn1xbLgUAAIBjJ8wFaGA5wP38X+UAt+sGXF91I7MaqILdzj+6sivYLf4Ne+PGaQAAAPRvwlyABlMFuDvm/FpXgPv1LwpwaywHu8W/4Y5rfjN1/vHsHPIKdgEAAHgrhLkADeDlJ9akPXf/bdpxzaX9IsAddMG70tCr/yQ1nXZGGvzeD6Yh77sml6v2E86ekgbPeG+eW/aEs6akIZd9IJ1QLD+4zYzL8jahaWRzanrbhPyou/h3jukXItjtGmkt2AUAAODICXMB+kjMgxsBbp5j9Y9np93/eFs6sLGjXFpvOaQ9bUK+Gdiw912T544devVH09D3fTgvP+FtZ+RyLK8ewz72N3nZ8Js+n8Pc6mfRNKolh73xaCr22V90zYF8SLBbXBMAAADweoS5AL0oB7hf+2IO73bMeUcOcPvjjcyGXDYnTy8QYoRxNfp030++n8PZQRdMT/ufXJuaRhbls6emffEz2LEtb7Nv5fK87v4nHs3PqVgnguF49FcHg93imojnfSu/VS4BAACAVzQdKJTlhtDa2prmzZuX2trayhZ4xapVq9LcuXNTe3t72QL18PITa9NLt/9lvwxuDydG5oYc4o5qyaNsI7gNgy78jbTve9/OoW5WtOflRT2mXIifUYzAffnJNV3LB6gIr+PnOOzqj+apJwA4/nzWBAAanTCXWvEBm7dq27Ztac2aNemZZ54pW3rHjBkz0hknt6TOay6t9Ry49J0IdEf89Zfz+19vX79H46STTkoTJkxIU6dOLVsA6sdnTQCg0QlzqRUfsDlaEeLeeeed6Qtf+EIuR9jUm+bPn58+8J7pOcyFtyJGK4/8+/vTggUL8ntgo4r+VfWxuO7nzJlTLgGoD581AYBGJ8ylVnzA5mjESNy4XlpaWtJHPvKR/L4S5b7w0uf/Mu39+pfKGo2kaWRzSiNPSgd+2Zg3n4sbxw373T8pa43tZz/7Wf7yZOnSpWn69Onpjjvu6LM+B/BW+KwJADQ6N0AD+qUqyI3Rgd/85jfTtdde26eh0ok3fCKN+Lv70uD3fqAW858Oed816YSzpuY/74/5a3vSsOv/ovg5fLCsvdawG4rlM96bTvzYZ8qWw4sRq0Pe9+GydvQGXfCuNOxjf52aTj8zjfzM3WVrY8jnVvycRi39j9oEueH8889PixYtSg899FDq6OjIfTBG6wIAANAzjMylVoyW4EhUIdKsWbPSJz/5ybK1sez78aq091tfSft/8v2um4T1kQhNB10wPb38y458E7KqPOisqfl5yPTL0s5P/ZfU1HQgjxANcd5DLvtgvqHZ7tv/8mB7vKbUuS0NmjEr7f2/v5gDyeI/M8W+pqTdd9+WTrz+E+nlX6xJJxTH2PVfr8pBbCzb8/Vi3QvflY8Z6w3/2GfSgc7t6cCObemlz348n+OQ985JB4r/7Vv5rXyMuGlaiJuEhdh277eXFsu/3VUvjj343ZflwPelT/1BGnbDJ3J77L/6eXfdXOxP0s7/enUa/tdfzufUl5reNqH4uX4g/2yr11VnVT+8/PLL00033VS2AjQ2nzUBgEZnZC7Q7yxbtiw/x7ydjWrwhdPT8AV/k0Z96d/SiZ/4710jduPP/XvZCaedmZpGdQWjQ3/3o/kmbYMvmJ7r+x/5ftr35NqD0w9EuDro7KnFNmeklzd2pP1PrkmDZlx2cPuXi3WHXDYnDYmQ9KoIeJvS0Pd9uGufM2YV6zWn3f/4t3ndEPtJxWuO7Ye+7yMH1wv7n1iT9n77K7kcbRHCnnD6hK6Qc2RLfo5HjBreV6wX+9j/43/P64cTTj8jn+/+H38/h8b5fH+yqtjXZWnYxz6TRx7Hsr4W/+ZDr/6TNPyv706j7nogDSv+DfpDkBti7twYpVvNVw0AAMCxE+ZSKxEOxDyM8EZizs6YI7cuc3UOefesHOyOvOvf8tQCg6e/t1xy/EUgG6HnkBmz0r5vfTWPtt33k1ffZCuCz0EXTj98yHigKb38XEcOU2M0bYy0jfmBY1Rs16jjjmKdCHrXlBu8Io7V1NSUp3N4vfUi6IyQeNjVH00nFOtHsByBZ4ThlQhnY+NBF/5GV8MhYp+xfoTCEeDu/uzHXzV/cW+H6HG8+JnmAHfpj17zevqTeL+O9+0IdAEAADh2plkA+pUYAXjBBRfkeXKnTp1attZPHkn64+8fnIrheIpQNUbFHlquVG2HWxaiPRxuWTh0uwisI5SNUbrdl73e/kMsO/Gm/5FeWvTxPM3C4daLkb7VlA+7P/+XxTrbc7nyevvPUzxc8K605+5XRg33tAhwY1Tw4Ms+2G+D29ezcOHCPOVC3AwNoNGZZgEAaHTC3P5i98aUfvGZ4vm5soHaa35HSmf8XkrDTisbOBLVL2E/+clP+s1d9KtgN+aWjVGqA9Ubhb2NKALcGHUcAe6Qd1+Wz38gilG5MVo+booG0OiEuQBAoxPm9hdrF6S0/ZGyQr9x2gdSmvSHZYUj0d9/CYtgd9/3vpX2/N9f7NMbp/H68s3XZlyWhszqukncQLdkyZK0ePFiYS5QC8JcAKDRmTO3v9hjRG6/tOuJsgBdYt7aoe//cL5x2oi/u6/rxmlxIzH6VAS4w67/izRq6X+kEZ/5cv43EuQCAADQ04S5ADU16Oyp+cZpEezGzbQEu70rplCIG7SN/NIDAlwAAAB6hTAXoB+Im2q9Jtgd2VwupafEzzQC3PgZj/z7+9Kw3/1oHi0NAAAAvUGYC9DPHAx2l/4onfixz6TB099bLuGtiAB3yPuuyQFu/EwjwI2fMQAAAPQ2YS5APzbksg+m4Z/8fJ4KIILdmNuVN5cD3Pd+4GCAe+INnxDgAgAA0OeEuQADQEwFEMFuzO0q2D28CHDjZ5KnULjr39KJC/5GgAsAAEBDEeYCDDCHBrvDrv+LAX3jtAhw42cQAW78TCLAdSMzAAAAGpEwF2AAi2B36Ps/nG+cNuLv7stzww6EYLcKcEct/Y8c4MbPQIALAABAoxPmApANOntqnhs2gt2YamDwez/Qr4LdCHCHXv0nAlwAAABqS5gLwGvEVAPDF/zNq4Pdkc3l0vpoetuEHODGa4gAd9jvflSACwAAQG0JcwF4QweD3aU/Sid+4r+nwdPfWy5pTBE6x3QREeCOuuuBHOC6kRkAAAD9gTAXgCM25N2z0vBPfj5PVXDixz6Tpy5oBK8KcCN0vuETAlwAAAD6HWEuDWv7zn1lCWg0MVXBkMs+mKcuGPmlB/ok2I0AN44ZAe7Iu/5NgAsAAEC/J8wlLfpye7r5jifTPcufK1u6rHj4xbT60e1l7ejc/vVny9LhLbr76bJ0eBHkPrD6xbL21sQ5rF67Lb+2qz7x03T71w5/TnGse5Z1vfZYd0Vx3O7nd8OnHy1+Fi+UtdeqXuvCYlsYiE44bcKrgt1h1/9FOuGsKeXSnhcB7rCPfSYHuHHMCHDNgwsAAMBAMOjmQlluCHfeeWeaPn16Ov/888sWjsjGr6a0v7OsHJ2/++dn0uXTx6RTTxqclq96PoeTG57fk8vrnulMs951alfI+fCLedmMC09KC+/4RfrKd36ZNmzenbbv2p8+/Kk16e3jh6eVP95aPJ+Y/o/PPZGf77p/Q3qg2C41xXE60vd+sjXt2LUv3fWNDemCc0al8WOG5bB0/Jih6f7vbk73LN+Y1xk29IRi/5uKtk05UI722Mdn724vzmF9+q1po1PziMH5/COM/ur/3JT27Hs5rVi9Ja/7/NY4xvr09nHD0wf/l7ellT/ZlhZcPTGf18pi/80jBxX7ejofq33DrvTV4rVMnjiiONct6X/7nTPT3y15Jm+3vnh9/7T8ubyfaItzzOf8fz4ap/Oq17r8+y+knzyxo/jZ7S5+DuV5bNubLjh7VD7Pt2TY6SmNubyscCQ6OjrS0qVL0/z588sWelPTqJY0aMqvpaG/fVUOeMOBFzel1PnWvhiqRIA79H0fTsP/7La870FnT01NQ4eVS2lka9asSatWrUrXXntt2QLQuHyOAAAanZG5A1yMSv3QrHHpwIED6f4Hn8/B6bTzWtL2zv35eeavnVKumdLs94xNzSMGFettzs8Rfk6eNDLds2xjLsfI12lTWnLImpdNHJkee3pnGjcmApcDuW1dUb/yktjP4Lz/Q40bMzTt2Lm/rHW5+bqz8nMeZVuUI/jtbvKZI/J224vtIvyN4zSPOCE/z5w2ulwrpXXtO/Pr7TqfcCAf68ridY0bc2IaN3ZYfl2heo7gtloW5xvnHj+jc4t9f+jy0w++1pkXn5LL17//jHycFQ9vye1xTjBQxYjdmPpg1Jf+LU+FMPi9H0hNp51RLn1zOcC9+k/y/LwxAnfo+z9sBC4AAAADmjB3gIsA8oGHX8gjUidPilDy5Bx4RtAZAenqR7eV63WFmxGERkAaIWU8Zl4c5X3p+vd1BTQRYIZp5zWnh4tt4zkC3AiH43n2Jafm5659d43Ui+3v+25XQBz7HFU8b9j0Uq5XwWsEuHHcmP5g/eY9uW3d053p9q91dO2/2K55+KB0aXE+MZp21MhB+bV0P/94ffF6Y/14jn3HeXTpCna7XvurxbGr1xGjjKP8ynZdrzVC5CpkjvOP13m4fcFAFVMhDF/wN28a7Da9bUIOcEf8/X05wB32ux8V4AIAAECp6UAMyWwgra2tad68eamtra1s4Yg8cnVKuzeWlf4ppnmIUcERllajdXvafQ9uylMwbNi0J4+87XMtF6V03qKywpGIP+eeO3duam9vL1toZHu/tzzt/8n3c3nwjMvcwKwfWrJkSVq8eHF66KGHyhaAxuVzBADQ6IzMpTZiFPAtH/3V4xbkhphKIqZMaIggFwaAIe+eladiiIcgFwAAAN6YMBcAAAAAoAaEuTSUrvlvu+aaPdycs9H2enPRVu2xjw2bd+cyAAAAAPQXwlwaxs13PJnnrL3xtp/nYPbG2x4vl7wS0K5r35lu/9qzr7p5WlWO9ePmZ/csey6tWP1iuv+7m3M7AAAAAPQHwlwaQoSyGzbvSQuunpSuvGRsemD1lnJJlxWrX0gLbvt5Wl+s88DDL+bQ955lG9MNn340l6vg9oHVL6Zp57WkS6eNTqvXbsttAAAAANAfCHNpCM0jBqcNm1/Koew9y59Lo0YMKpdUUy/sz+UYnXvpxaPTtCkt6bGnO3PbuRNHHFy/Wm/HzpiOoasMAAAAAP2BMJeGcctHJ+fRtOPHDEvTpjQXz0PTwjueTOs3v5SXz7z45DR50vAc/D5crHfD+89Isy8Zk6dWiEA3tpl2XnMOeR97eldeHwAAAAD6i6YDhbLcEFpbW9O8efNSW1tb2cIReeTqlHZvLCsDWzW9wuRJI3LwW2stF6V03qKywpFYtWpVmjt3bmpvby9bgL60ZMmStHjx4vTQQw+VLQCNy+cIAKDRGZlLvxNTMMSj9kEuAAAAAHQjzAUAAAAAqAFhLgAAAABADQhzAQAAAABqQJgL1NqaNWvSFVdckTo6OsqWV4v2uJHJtm1dN8YDjq/ly5enT33qU2XttZYuXZr7LAAAAEdPmAvU2oQJE3JQG4HtoYFuFeTGOi0tLWUrcDxNnTo1LVu2LC1YsKBseUUEudE+a9assgUAAICjIcwFai1C2nvvvTeXI7h95plncrkKcqdPn54WLVqU24DjL748iT65atWqVwW6VZA7b968NH/+/LIVAACAoyHMBWqvCo9C9efdglzoO90D3cWLF+fR84JcAACAYyfMBfqFKjyqplMQ5ELf6v4lS4S5glwAAIBjJ8wF+o0qPLrpppsEudAAqj4Z/VGQCwAAcOyEuUC/EuHRtddeW9aAvhZ9cs6cOWUNAACAY9F0oFCWG0Jra2v+U8y2trayhSPyyNUp7d5YVug3Wi5K6bzjOMI0rpmf35TSzifKBhpWXAvnLExp8KiygX7pxe+l9IvPpLRvR9lAwzr9gylN/C9lBegvYq7vmHe/vb29bAEAaCxG5vYXp15eFuhXTp1VFo6T9s8Jcuti2yMpbV5eVui3nr1LkFsXz30lpe1FvwQAAOhFRub2Jy8+lNJ+IUC/MfT0rtGYx9PaBcKIOjnj97oe9F/+yqJezvp4SmOO85duQK8yMhcAaHTCXGon7ore0tJS1jgmwtx6Eeb2f8LcehHmQr8jzAUAGp1pFqiVxYsXpwsuuCAtXbq0bAEAAACAgUGYS21EkHvrrbfm8oIFCwS6AAAAAAwowlxqoQpy58yZk+sxFYdAFwAAAICBRJhLw6uC3EWLFh2cS3n+/PkCXQAAAAAGFGEuDW358uUHg9xqVG6le6Db0dFRtgIAAABA/yTMpaHNmjUr/cu//MtrgtxKBLqxfMKECWULAAAAAPRPwlwa3vnnn1+WDu/NlgMAAABAfyDMBQAAAACoAWEuAAAAAEANCHMBAAAAAGpAmAsMKNt37ksbNu8ua4f3Zstfz5HsG3i16DNv1m/WPb2zLB2d6JPxAAAA6C+EucBRW795d3rn7/97Wv3o9lyPIOb2rz2b7n9wcw5OVjz8Yq6He5Y/l9e74dNrXxWsHBreHLqsqldBT1WvHqEqx/ks+vLTuS1U63cv31ecW5zLjbc9ntcP1fbxiPVCPP+wON8Ij6JctVeq/cWjqlfWPb0rPVZs131/t3/92YNB1KH7gp6yeu223Ce7X2s33/Hkwes1rv/on2HR3e15vRs+/eirrslDr8/DLauu/e7X+OHWi/eA6G+Vw60T57di9Yvpqk/8NNdDtd/u+49yvL6qrfu+QrV+pfvyeO/ZsXP/q/YXrz/q1QMAAKBOBt1cKMsN4c4770zTp09P559/ftkCr+jo6EhLly5N8+fPL1s4JpuXp7RnY1k5cise3pLOnTg83f/d59O5k0akT3/pqRyUjB8zLIeXz2/dm5pHDE7TprSku+7fkPbsezkvf37rvnTXN55LO3btS8tXvVBsvznNmn5quq94jvUieNmweU9a/v3n01e+88u0Z++B9KVvbMjHXPj/fzKNOXlI+ur/3FQsfyGdevLQfNyVP9mWhg45IW8za/op6aeP7yjOYX0Oq57fti+HRXGeY04akrbv2p8efnRbmjltdD7XP7nlsfTUhpfSPct/mcOn2e8Zm8PeCHiGDWnKbX+35Jl05XvGFPWu775uvO3n+XV89Tubiv3vza8jXvMH/5e3pdVrt6f2Yn//x39/Im0ufgbrntmZjz9+7NB08x2/yD+X9udeShecPSrv66i1XNT1oP/a+NWU9neWlSMX1+DMi09OTxXX1/qiD0VwG33ggnNGpT//3OPpheKaffu44WlccS0u+vIz6VfGn5j7W1yT3yr60+rHtqWn1r+U+/a7LzwpB7FxbT9Q9IENz+8+eJ1HMBrX/gPFel/5zsbcF2KdHNw2NeXjRr+OPhT7jz4V/TvaVxd9L67/qu9Hv92z70DRZ3bl9bYX+/6TW9blPhn96J7lG4v3kOb09//ckX7yxI7itTSnLxXvE9Ee/a1ShdLV6/hJ8R4Q7zOzi34bx4r9fvqup9JPn+jM5xvn8/bxw9Nn7346v3/EOUyeOKLc21Ea3ZrSiLPLCtAf+KwJADQ6I3OBo3b/g5tSjELdsPmlPGJu9iVj07TzWvKI1whJZ18yplwz5ZAkloXr339Gfn6sfWcaNWJQai4eYcOm3enKYpsIWdcX+7z04tF5WYRRsW3s48riGNs7Y4Td/jRuzNC0YvUL+bixz3MnDU/nFutEgDxu7LCD265r78zhcKwfxp86rCifeDC4iX1F4FPpPlJv3NgTU2pK6ZaPTs777S62iW3jdcTx43jdR/hNnjgyt8fr6v76P3T56cV5b8ll6En5ei/6ZA5xi+s++tD44rqPLxi6+mdzXi+u5WiPazLKcU1G+HvodVld25cWfTL6eHWdh9gmruurZo3LfT76cvT7WC+OG19+RB+orvvom7FOnF+s073vxzrRJ6NtR9GHYt3u7x/RVoljRmi76KO/WrZ0OfR1LLh60qv6Y4j9xrlFe7z+2Fec84dmnVa81qMPzwEAAPqKMBc4KhGGRBByy0d/NQchMdLvvu9uyqFOhLERysSI1ipAjZF1q9duzduEyROHp6suPz2HMlVbhD/3F/uIECpCmSjHsghfYj/NIwfl51gvpQM5SI1w6YePbkv3PbipWDYsn1cV4BwoHhESxb6iFqFNrBPnGsePgGvFwy/kkYzx5+chygvv+EUOvSLsWb/ppeJ8dqYvL3suB2UxyjCe47ziNVavI/5ke2YOnwfngCrOM5aFWDdGMMc5xv5j6okFV0/My6CnrHu6M19f0SevvOTU3OeiD8Z1Gn0mytE/4/oPse4Piz7wynU6PF+XXV/GdK1TXdvxhcT1759w8DrP/XF413Ue++vel6NPRt+NbWLEfuyvEuvEcWNf1fpxrNhXHD9GsKcDTfmcY+RsmHbeqNw/Y914RBAcfezzRT96dZ989eu48bZ1BwPhfL65v8aXPV3nHecR21XHitcAAABQF00HCmW5IbS2tqZ58+altra2sgVesWrVqjR37tzU3t5etnBM1i5IafsjZWVgisDpnmXP5dF8ryfCshgV3DxycA6F+swZv9f1oP965OqUdh/91Cf9SfS3GBkcUy+8ngh2Q4zEjy9r+sxZH09pzKyyAvQHPmsCAI3OyFxgQIsg6I2C3JD/ZHxK13QPwPEV/e2NgtwQ/TEefRrkAgAA9AFhLgAAAABADQhzgYYQ81+GmN+zeo6738ecmdWymBM36jHnZpRjeai2ifWiXM2de6RiqoXYZ7UfoO/EFApdc+J29W8AAABeIcwFGsLtX+vIIezCO57MQU7cLCxuVPbwo9vynLYR1N5428/zugtuW5fD16jHcyzv2qYj33zps3c/nderwt9YVoVDVdhbtYc4Tjxi2wh2q8D4hk+vFfAyoHXvD93L0S+6P7ovq/pX1Yeifx66r2q7Q/cb4qZk0RaqL2ii/r8u+NHBdQAAAAYqYS7QEOJO+RHgXlo83/fgpoNzYW7fuT+HQ+s3vZTbZr9nTLHuKTl8jTlsF5XBbdwNf/YlY9OokYPTqBGDc1tsu6PYNu5uH8tjxF8ESyse3pIeKMOk7qL9s3EH/+d35xAp7n4fDxioFt7xi9wHov/ElyfjxwzNfS4HtAdSfo6bA8Z60W9iWaxXbdO9D0Wfipubdd/+hk8/mvt91ecqsc/o4zff8UT+0mVH0ZejX4/SHwEAgAFOmAs0hEunjU73LN+Ybnj/GTlUnXnxybl92pTmHObGzY4ey6Nrt+eRexHkRrh76bSTc9u085rz8giOIjAK9z/YNcIvQt0wbcpJaVyxTQRSsX6MBjxUHGf9pt05iIrwqLkMhmEgir7XPLLoB8UjvhhJTU0H+9PMos+Gd5Z9tHn4oNyvQqwfugLYrnL0x+h7h24ffTyC3ehzh7pq1ri0rr3o92u36YsAAACFpgOFstwQWltb07x581JbW1vZAq9YtWpVmjt3bmpvby9bOCZrF6S0/ZGy0vcizImAJ4Kb8WOH5dAnwtnqOd6sIhCKwGjypBF5xN6081oObhfP8WfYUY7QNoLcB4q2HOAW+4t9RFA7rijn9uI5RgTHek3FviMMjpA4jhH7iFGAcYxYpyGc8XtdD/qvR65OaffGstL3om9Ef4gR8VX/i3L0o/jiI/pq9MXoo937TfdtHi7WufI9Y/NI+B2d+/Lo+Rz8FttHW/c+F+XYZ/TNGI37WHtnfr6y2Ff073MnjczrNIyzPp7SmFllBegPfNYEABqdMJda8QG7hzVYmMubEOb2fw0W5vImhLnQ7/isCQA0OtMsAAAAAADUgDAXAAAAAKAGhLkAAAAAADUgzAUAAAAAqAFhLgAAAABADQhzAQAAAABqQJgLAAAAAFADwlwAAAAAgBoQ5gIAAAAA1IAwFwAAAACgBoS5AAAAAAA1IMyFgWzQqLIAwFEbNLIsAAAA9A5hLgxkY2eVBRpehEZj/Hv1e2/7QFmg4Q09LaURZ5cVAACA3tF0oFCWG0Jra2uaN29eamtrK1vgFatWrUpz585N7e3tZQvHbPdzxWNjWaFhRWg02EjqAWHnEynt21FWaFj6JPRLPmsCAI1OmEut+IDNm9m2bVu+TmbNMooVGkFHR0fuk3PmzClbABqXz5oAQKMzzQLQr6xZsyZdd911ZQ3oaytXrky33nprWQMAAOBYCHMBAAAAAGpAmAsAAAAAUAPCXAAAAACAGhDmUitTp05NN910U1kDAAAAgIGj6UChLDeE1tbWNG/evNTW1la2cMT2daa0f0dZofYGjUpp8MiywpFyF2poLEuWLEmLFy9ODz30UNkC0Lh8jgAAGp0wt7/YtDylX3ymrNAvRJg7ZVFKI84uGzgSfgmDxiLMBerE5wgAoNGZZqG/2PiVskC/EaOsn/2HsgIAAADAQCfM7S9Mr9A/+XcFAAAAoCTMBQAAAACoAWEuAAAAAEANCHMBAAAAAGpAmAsAAAAAUAPCXAAAAACAGhDmAgAAAADUgDAXAAAAAKAGhLkAAAAAADUgzAUAAAAAqAFhLgAAAABADQhzAQAAAABqQJgLAAAAAFADwlwAAAAAgBoQ5gIAAAAA1IAwFwAAAACgBoS5vCXrN+9O657emcsrHn4xPx8qlm/fua+sdTm0XtlQ7C+WrX50W9ly7OIc73twc953nEs8R1v1vHrttnT/dzeXa6fi2NvL0uG93rkDAAAAQG8Q5vKWbNi0O61Y3RXifvbup3MwGqFuFezes2xj8XgurXt6V26L0DQC1Ks/8dMcinZfN9qvKtrXte/M20UA2xXsbs/bVSFq1O8r6lXwG+tGOfaTw9lHtx0MkOOx8I4nU/OIQWnBbevSY0V7bHv7155NXy7O6/4y5D1woOv4cZxYVu039hnl6jzj9VXnDgAAAAB9QZhLj8gh66bdOcCNMHT7rn3pQNEe4WcErBGgbti8J40bc2JasXpLemD1i3ndWBaBa/OIwal55KBy/c4cti66uz091t6Z7lm+MR/j9q91pObhg4r2p3NQG8dYcNvjB0fYRnuss2Pn/hwMjx8zLM2cNjrNvPiUfIzVa7enpmI/sTyC38mTRuTtYl/jTh2ajx2BbirOPM7t/gefP3ie68tzBwAAAIC+IszlLYngtRq1Om7MsLJtcNq+c38ORbd37j8YqkbYGsFq6BrZeiCPhp08ccTBIDcvK7bJAezFo/PyWC/qsV4lwtk4Rohgd+bFJxXLR+bwd+bFJxetTfl8IqiN0bg33/FkDprPLY81qniMGzM0rzeqPG7WFDFvsc9i+fZd8RriGK+c5/him65zBwAAAIC+IczlLYkA9fr3nZFH497y0XNy2/pNL6UFV01M17//jDTtvOZ05XvG5PD1ykvG5HIEoh+adVp655SW3DateK6C4I8V20UYHOtFEDv7PWPTzdedlZfFvkIcL3zo8tPSx66elMszp51SPE4u6hOLbcfmZSEC4ls++qs5xI2QN44T53XV5afn9RYU60dwG+t/sjjOuvbOfO7TzmvJIXEsq849zjMece4RUAMAAABAX2g6UCjLDaG1tTXNmzcvtbW1lS0ckUeuTml313QEfSFG6EZwWoWzdZXnz31wcw6eI/Ttcy0XpXTeorLCkVi1alWaO3duam9vL1uAvrRkyZK0ePHi9NBDD5UtAI3L5wgAoNEZmUuPiKkR6h7khpjWIUbwNkSQCwAAAADdCHMBAAAAAGpAmAsAAAAAUAPCXAAAAACAGhDmAgAAAADUgDAXAAAAAKAGhLkAAAAAADUgzAUAAAAAqAFhLgAAAABADQhzAQAAAABqQJgL1FpHR0e69dZby9prbdu2LS+PZ+D4W7NmTVq6dGlZe60367MAAAC8PmEuUGsR0t55551pwYIFZcsrYtncuXPfMFgCelaEtdEfFy9eXLa8IpZFn1y+fHnZAgAAwNEQ5gK1NnXq1HTvvffmcKh7oFsFufEcy1taWsolwPE0a9astGjRojz6tnugWwW50RejTwIAAHD0hLlA7XUPdBcuXJjbuge5EyZMyG1A75gzZ87BQDdGzldfrlRBri9XAAAA3hphLtAvVIFujP4LglzoW1WgG3PoRn8U5AIAABw7YS40skGjygJHogp048+8BbnQ96pAt+qTglwAAIBjI8ztL8b/Xlmg3xg0MqWJ/6WscKQi0L3jjjsEudAgItCNPinIBQAAOHZNBwpluSG0tramefPmpba2trKFo7J7Y1mg9oadVhaOo32dKT37DynterxsoGE1X5TSGb606ffiPfzpz6W0f0fZQMMac3nxmFVWgP5i1apVeY7v9vb2sgUAoLEIc6mVmHcxPmTHn+zSA578m5Q2LysrNLyzPi486u9+ekNKO58oKzS8KYu6vmgB+g1hLgDQ6EyzQG1Ud0O/7rrr0oIFC8pWjsnu58oCteDfq/8zIrde/DUMAADQy4S51EIV5MZd0cPy5csFugAAAAAMKMJcGl4V5MbzLbfcktvirugCXQAAAAAGEmEuDa17kBsB7plnnpnbp06dKtAFAAAAYEAR5tLQnnnmmfwcwe2ECRNyuVIFujH1QoS9AAAAANCfCXNpaOeff3765je/+ZogtxKBbixvaWkpWwAAAACgfxLmAgAAAADUgDAXAAAAAKAGhLkAAAAAADUgzAUAAAAAqAFhLgAAAABADQhzAQAAAABqQJgLAAAAAFADwlzgsLbv3JcW3f10Li+6uz0/H2r1o9vT/d/dXNa63LPsubL0aveV61X77E1xjuue3lnWDm/95t2ve+4L73gy3ffgpjfcx/3F8mPRFz8X6iWuv6q/vd71crhr/fWuzfu/uyn389u//mzZ0nviPWVD0efeyOq124r3mG1l7dXi9d+zbEM+/8OJ/rzi4RfL2tHr/rMGAABoJINuLpTlhnDnnXem6dOnp/PPP79sgVd0dHSkpUuXpvnz55ctHJPNy1Pas7GsvNrzW/emr35nU5r9njHprm9sSM0jB6e/++eOtPz7L6S3jx+e/vxzj+fAY+iQE9I9yzem7/1ka9q+a3/6uyXP5OXd19299+W08I5fpPFjh+WAZOVPtqTnt+1NP318R/rKd36ZNjy/O11w9qgc0Cz//vN5naFDT0if/tJTeZsIUx9+dHuaPGlEuuHTjxbbbz24fEdxzK/+z1/mbeJY/9c/P3Nw+ziHnzzRmfYUx49z+Urxes4t9hHrxDk3jxyU14ntnt+yN6/71eJ84rXEOa388ZYcQj/w8IvF+TXnc4ljxr5OPXlIuuNrz75yrnc9lS44Z1Q+1wce3nLw/OLn9vZxw9ONt/08b1ete/+Dm/OyeP3LV72Q2je8lH/Wb6jloq4H/dfGr6a0v7OsvNpT63flPjdtSkvukzt27s/XT1zLcV3/b7c8lp7asCtfz3fdv+FV12b3thkXnlRcb7uKPvxE0adGFtdfV58bP/bEYl/PFdf91rRn34Hyul2X+0N8cRP97q5vrE9NTU3p9q+VfWvfy7kPfak4nz17D+TzimN+qThWBLHDhg5Kny36dbVutEffiv09VryWeO7axzN5negHsY84x6eee6nYZyr60S9yH4xzuu+7mw72l6FDBuU+HPuv3muqvh3vC3GsdxY/q3iviveP1JQO9vehQ5rS/1n0z+7vFdU+ot/GuYX4Wb+h0a0pjTi7rAD9gc+aAECjMzIXeF3dR71t79yfZl48Ok2eOCKPYJ12Xku6sgwfoy2CpaYDKY0aMTiNHzM0j4wbVzw/1t5Z1Ifltti+uVj+sasnpXXtO3NQGsvWb+oaoRfHu+ry04vSgbx89iVj04rVL6br3z+haEk5PL1q1un5eHE+sa9xxfbbi2OPGjGoOOZLeT/NRTke3X2o2G+cT5xXU1GP5zhG9ZrCjuL40X7zdWcVx92Sg6Yox2uKc4tzif0uuHpisXZTPma0x3lMnjiyeB178jnH/h4o1o3XFvsP1THimOlAU7r+fWfk8uq128v9wZur+mQ8x2P2e8bm6zpGjkffiH65o3Pfa67N6C9VP9lQXKfR1vUYkdeJ6zFGwsZ1GzYc7JP7u/rDwy/m/UVfjGPd8tHJOazt6p9n5P4dy2N/cV1HH+saeRs9t0ssj/eJyg3FdrGP6FNxLlGOdaKvxjnFOcdrib72oeK1dZ3flnw+IdaN/hN9rOpDVd8ed+qw9M7zmvO5Vu8fsf20oi3OsfpZxD7ifKPt0mI/8XrC7Eve5IsVAACAPiLMBQ4rgsgIOK76xE/zc4hAJx4RtlRBTg5UinIEIyFCncee3pUDmghMYjRriHqM+utu9iWn5pGGcaxKBMXrN+/JIW2IoKaa/iCOW51DiH1GOFOFROPHnJjbq6A2lld/yn37157N5Qip4rxi2eFEiFSZefHJeaRthLwhRgbnsLdoyyFQOXovbN+5N7/2GDkYP4+Lu43oq35GhxPnESML4c3E9RfXUfTJmdO6viSIvhHXdYS61bUX1/eh12aM3K36ybixQ8slB4r1t7+qL0SguaHofzHitRJTIkQwWol+ESPNo+/FI/pW9NlKtHVpyl9wdO+HIX+hUYjtYtm69s5XLX8jFxf7jj5ZmTalOb/u6JMrVr+QX3vsM15v9NUYWVu9f0RgXPXv6NPdf0aV2Da+FIrRvQAAAI2o6UChLDeE1tbWNG/evNTW1la2wCtWrVqV5s6dm9rbDz+HK0dp7YKUtj9SVt7YfQ9uzqPeqtG4x0MEMjFarwpyDxXhTIzOzYHqdWe97nr91hm/1/Wg/3rk6pR2H1mQGGFohJWvhKc974ZPr02f/7MpZe21IjyOKUOiT77Rev3WWR9PacyssgL0Bz5rAgCNzshc4IjEfK7HM8gNbxbQxgjeTxbrRGg04IJcOERMb3A8g9zwZgFtTOtQ9UkAAACOP2EuAAAAAEANCHOBhnCkc2Z2F3OAvpFY3v1RtYU43qvnFX3jfcFAc7R9sns/ez3VPqt1u28Tz9375Ft5TwAAAOjvhLlAn6oCm5gvN8rdw53u9e7luAFSzNEZNw6rtq+WVW7/Wkex3i/yjZoiILrxtseL58509Sd+1jXnbrEs7m4fYh/3LNuYbwZV7ad6VPuPm0B13z/0V9U1H30kVPUQ5e79I0R/WvTlp9OK1VvSA8Wjau++Tlj05faiHz2d5+GNvhZz/sZz9NPoi9Gfu/fJ6j2hOmao9hmP2Ff3/QMAAAwEg24ulOWGcOedd6bp06en888/v2yBV3R0dKSlS5em+fPnly0ck83LU9rTd3dtj3Bn5Y+35psoPb91bxo3dlj6p2Ub01e+88vUPHJwsWxL+rslHfnGa1/6xoZ0wTnN+W78d31jfZ6r877vbk4/faIzDR06KH327vb01IaX0gvb9qXJE0ek27++Pv1fN55b7mdr2rP3QIo73UfwNGzIoPT2cSemFQ+/mFJTUw6VIjAaP2Zo+vRd7Tn8bS/2dVdxzAiLVj+2PS3//gvF8UfleXv7TMtFXQ/6r41fTWl/Z1npffHlx1MbduXrP/pTdL4Vq1/MfSGu/egzd33judxfv1X0iWlTmnMfjJug/UrRp1b+ZGu6Z/nGdOrJQ9IdX1ufHnh4S1EemppHDEr3LPtl7pOx071Ff4w+FX0y9hVt0afv/+7zaceufWn5qhfSY0/vKrYbXPT99XndeB+I94OVP9lWdNum9NXvbEzvvvDkdOpJQ+LU+8bo1pRGnF1WgP7AZ00AoNEZmQv0mQ2bdqePXT0xzZx2Sq7HqLwIdyKMjWVRrh6zLxmb2+MxbsyJOfg9tyhfevHotK69M68TRo0YlJ8jPIpRfxFERSA0eeLwdP93N6cFV01Mt3+9I02b0pLX29G5L+87bqgW+4gbSs2cNrooV3/y3ZRDrAh6I2yC/iz6wIKrJ6XJk0bkejVSNvpA18j16I9do2GvfM/Ysm+NyH1xVFGeWfTHeHT1331Fvxqa1431Nmx+KX9x88DDL+Z+GttFQBvrRwAcwXB4rH1n+tDlpxf7HJ73UfX9rmPvz/uM7eN9INoBAAAGEmEu0Geuf/+EPGVChLER6ESAU4U/EbZGcDP7klPT5EnD07ixXe0hgtkYSRvBaw5ZpzQX25+c149QKURIHFMt5PVi+bRT0odmnZZDqjhWhEDxfOm00WnFwy/k8DfC2gidYpRhPMf6ESZ1rXty10he6Mc+dPlpeXqDEP3m+vefkftQ9IEq4I1+En2yefgrX5zEiPfmkSfkfhrLYp3qC5Loo+FjV0/Ko+Afe7oznVvsa/YlY4r+d3K68j1j8nGjz8UxryreB7687Ll8zFgWAXB8sTJ50sjc56t+Hu8D3efYBQAAGAiaDhTKckNobW1N8+bNS21tbWULvGLVqlVp7ty5qb29vWzhmKxdkNL2R8oKEdzG3LkRTN3w/jNyGNVQzvi9rgf91yNXp7S776Y+aTTRFyMADg3ZJ8/6eEpjZpUVoD/wWRMAaHRG5gKUYmRgjES8+bqzGi80ggEopneI/qhPAgAAdBHmAgAAAADUgDAXAAAAAKAGhLkAAAAAADUgzAUAAAAAqAFhLgAAAABADQhzAQAAAABqQJgLAAAAAFADwlwAAAAAgBoQ5gIAAAAA1IAwFwAAAACgBoS5AAAAAAA1IMyFgaz5orJALQw9rSzQbw09vSxQC80XlgUAAIDe0XSgUJYbQmtra5o3b15qa2srW+AVq1atSnPnzk3t7e1lC8ds07KU9mwsKzSsCN5bhO8Dgj5ZD6PfndKIc8oK0F/4rAkANDphLrXiAzZHYtu2bamlpaWsAX1NnwTqwmdNAKDRmWYB6Ffil7ALLrigrAF9bfny5emKK64oawAAABwLYS4AcNxs3bq1LAEAAHCshLkAAAAAADUgzAUAAAAAqAFhLgAAAABADQhzAQAAAABqQJgLAAAAAFADwlwAAAAAgBoQ5gIAAAAA1IAwFwAAAACgBoS5AAAAAAA1IMwFAAAAAKgBYS4AAAAAQA0IcwEAAAAAakCYCwAAAABQA8JcAAAAAIAaEOYCAAAAANSAMBcAAAAAoAaEuQAAAAAANSDMBQAAAACoAWEuAAAAAEANCHMBAAAAAGpAmAsAAAAAUAPCXKBf2rZtW1kCAAAA6B+EuUC/MmHChPzc0dGRnwEAAAD6C2Eu0K9EmBuPZcuWlS1AX4ovVqovWQAAADg2wlyg35kzZ0668847TbUADWDVqlVp6tSpZQ0AAIBjIcwF+p1rr702tbS0pIULF5YtQF+IUbkR5s6aNatsAQAA4FgIc4F+J4LcO+64Iy1fvjx96lOfMkIX+sjcuXNzkDtjxoyyBQAAgGMhzAX6pfiz7nvvvTfPnXvFFVekpUuXuika9JL4AmXBggW5/MlPfjI/AwAAcOyaDhTKckNobW1N8+bNS21tbWULvCL+XDdGerW3t5ct8MYiwL311lvztRPlGLUbD3pf3AQrQvaYBsMNsfqv6GtVkBsj5M2XC9SJz5oAQKMT5lIrPmBzLFauXGl0bh9as2ZNnvoi/g0i0L3pppvKJa8VIztjVHVsY5qMeoh/p3iPjueYWiFG5ArtgbrxWRMAaHTCXGrFB2yovyVLlqTFixfnEdIxFUb3kdLVSOqYFiPaY1SnQLA+4t8r/vtt9DtQVz5rAgCNTphLrfiADf1DhLbRlyP8iz/FDzEK97rrrsvlW265xU2zAOh1PmsCAI3ODdAA6HUx2jZC3Jh2IX5xrsLd6dOnp29+85uCXAAAADgMYS4AfSJG5c6ZMydPq1CN0l20aJE/0QcAAIDXIcwFoM/ElDrVyNwIcgEAAIDXJ8wFoM/EaNwwa9YsNzoDAACANyHMBaDPVFMqxFy5AAAAwBsT5gLQ58yTCwAAAG9OmAsAAAAAUAPCXAAAAACAGhDmAgAAAADUgDAXAAAAAKAGhLkAAAAAADUgzAUAAAAAqAFhLgAAAABADQhzAQAAAABqQJgLAAAAAFADwlwAAAAAgBoQ5gIAAAAA1IAwFwAAAACgBoS5AAAAAAA1IMwFAAAAAKgBYS4AAAAAQA0IcwEAAAAAakCYC0Cvmjt3blqzZk1Ze7Vt27bl5cuXLy9bAAAAgIowF4BeNX369MMGulWQ29HRkaZOnVq2AgAAABVhLgC9av78+ekjH/nIqwLdKsiN53vvvTdNmDAhtwMAAACvEOYC0Ou6B7ph8eLFglwAAAB4E8JcAPpEFeiGlpYWQS4AAAC8CWEuAH0mAt1bbrlFkAsAAABHQJgLQJ9qa2sT5AIAAMAREOYC0Kte3vhs2nP336bOP56ddsz5tbT9irPzI+ovffbjad/Kb5VrAgAAAN0JcwHoFQc6t6ddiz6eOq/5zbT7H29LLz+xpmjbVi5Nub73W19Juz71B8U6l6b9P/5+uQQAAAAIwlwAjrsYjdv5R1emfd/+Stnyxl7e2JF2/ter8gheAAAAoIswF4DjKoLcCGYPbOwoW45cjOAV6AIAAEAXYS4Ax9VbDXIrEeiacgEAAACEuQAcRzEH7rEEuZXdd99WlgAAAGDgEuYCcNzs7qEpEmJkrtG5AAAADHTCXACOi/0/XtUjo3Ire7+9tCwBAADAwCTMBeC42P/E2rLUM/b/+N/LEgAAAAxMwlwAjov9T64pSz3j5R4c5QsAAAB1JMwFAAAAAKgBYS4Ax0XTqJay1DN6en8AAABQN8JcAI6LE86aWpZ6xgm/MqUsAQAAwMAkzAXguBgy47Ky1DMGv7tn9wcAAAB1I8wF4LiIaREGXfiusnbsejocBgAAgLoR5gJw3Ay7+k/K0rEZctkHUtNpE8oaAAAADEzCXACOm0EXTk9D3ndNWXtrTjjtjDTshk+UNQAAABi4hLkAHFcn3vCJNPi9HyxrRyeC3BF//eXUNLKlbAEAAICBS5gLwHE3fMFn0tCjnHJh0AXv6gpyTa8AAAAAmTAXgF4x7Hc/mkZ+6YE0+L0fKFsOr2tahb9IIz4jyAUAAIDuhLkA9JoTTpuQhi/4mxzqnviJ/55H6w557wfyvLrDrv+LNPyv7y6W/Vsa+r4Pl1sAAAAAFWEuAL0uQt0h756VR+vuue4TeV7doe//cBp84fRyDQAAAOBQwlwA+tQVV1yRli9fXtYAAACA1yPMpZY6OjrKElB3+jMAAAAcGWEutTJhQtfNkLZt25afgXqr+nJzc3N+BgAAAF6fMJdaiTC3paUlLVu2rGwB6qzqyzNmzMjPAAAAwOsT5lI7H/nIR9LSpUuNzoV+YPHixWnOnDllDQAAAHgjwlxq59prr81BboRAQH1FH475cufPn1+2AAAAAG9EmEvtxDQLixYtSl/4whcEulBTd955Z7r11lvTvHnzDs6FDQAAALwxYS61NGvWrBzoRhh0xRVXpFWrVpVLgEYWfXXu3Llp4cKFOcg1KhcAAACOXNOBQlluCK2trfkX/La2trIFXl/8iXaEQsuXL88jdqdOnVouARrNmjVr8hQp06dPz+/zbnoGQKOpvnRsb28vWwAAGoswl34hQt2VK1fmZ6AxxRcul19+uWkVAGhYwlwAoNEJcwEAAArCXACg0ZkzFwAAAACgBoS5AAAAAAA1IMwFAAAAAKgBYS4AAAAAQA0IcwEAAAAAakCYCwAAAABQA8JcAAAAAIAaEOYCAAAAANSAMBcAAAAAoAaEuQAAAAAANSDMBQAAAACoAWEuAAAAAEANNFyY29LSktasWVPWAAAAese2bdvy7yMAAI2q4cLc6dOnC3MBAIBet2zZsjR16tSyBgDQeBouzL388svTqlWr8gMAAKA3dHR05N9B2trayhYAgMbTdKBQlhvG3Llz8584ffOb3yxbAAAAjp8FCxbkMPehhx4qWwAAGk9D3gBt0aJF+Zvx+EAFAABwPC1evDgtXbo03XHHHWULAEBjasgwd8KECenee+/N34y3trbmD1YAAAA9KX7fiL8K/MIXvpAHlJgvFwBodA05zUIlRufeeuutOcyNgDc+XLm7LAAAcKwiyI3fN+IGzBHkxu8bAACNrqHD3Ep8yFq5cmVas2ZNnksXAADgWMRAkXjMmDGjbAEAaHy1CHMBAAAAAAa6hpwzFwAAAACAVxPmAgAAAADUgDAXAAAAAKAGhLkAAAAAADUgzAUAAAAAqAFhLgAAAABADQhzAQAAAABqQJgLAAAAAFADwlwAAAAAgBoQ5gIAAAAA1IAwFwAAAACgBoS5AAAAAAA1IMwFAAAAAKgBYS4AAAAAQA0IcwEAAAAAakCYCwAAAABQA8JcAAAAAIAaEOYCAAAAANSAMBcAAAAAoAaEuQAAAAAANSDMBQAAAACoAWEuAAAAAEANCHMBAAAAAGpAmAsAAAAAUAPCXAAAAACAGhDmAgAAAADUgDAXAAAAAKDhpfT/AX2wr8+ayJ0YAAAAAElFTkSuQmCC;" vertex="1" parent="1">
                    <mxGeometry x="-840" y="130" width="825.28" height="620" as="geometry"/>
                </mxCell>
            </root>
        </mxGraphModel>
    </diagram>
</mxfile>